<?xml version="1.0" encoding="UTF-8" standalone="no"?>
<svg width="30px" height="30px" viewBox="0 0 30 30" version="1.1" xmlns="http://www.w3.org/2000/svg" xmlns:xlink="http://www.w3.org/1999/xlink">
    <!-- Generator: sketchtool 40.3 (33839) - http://www.bohemiancoding.com/sketch -->
    <title>E38AB30B-EA82-4B68-8F0D-C4953700AD3F</title>
    <desc>Created with sketchtool.</desc>
    <defs></defs>
    <g id="Contract-List" stroke="none" stroke-width="1" fill="none" fill-rule="evenodd">
        <g id="Contract-List---Grid" transform="translate(-919.000000, -124.000000)">
            <g id="ic_list_black_24px-copy" transform="translate(919.000000, 124.000000)">
                <g id="Group">
                    <path d="M0,1.99161703 C0,0.891677316 0.89784041,0 1.99161703,0 L28.008383,0 C29.1083227,0 30,0.89784041 30,1.99161703 L30,28.008383 C30,29.1083227 29.1021596,30 28.008383,30 L1.99161703,30 C0.891677316,30 0,29.1021596 0,28.008383 L0,1.99161703 Z" id="Shape" fill="#3A405B" opacity="0.5"></path>
                    <path d="M7.5,16.5 L10.5,16.5 L10.5,13.5 L7.5,13.5 L7.5,16.5 L7.5,16.5 Z M13.5,16.5 L16.5,16.5 L16.5,13.5 L13.5,13.5 L13.5,16.5 L13.5,16.5 Z M7.5,22.5 L10.5,22.5 L10.5,19.5 L7.5,19.5 L7.5,22.5 L7.5,22.5 Z M13.5,22.5 L16.5,22.5 L16.5,19.5 L13.5,19.5 L13.5,22.5 L13.5,22.5 Z M7.5,10.5 L10.5,10.5 L10.5,7.5 L7.5,7.5 L7.5,10.5 L7.5,10.5 Z M13.5,10.5 L16.5,10.5 L16.5,7.5 L13.5,7.5 L13.5,10.5 L13.5,10.5 Z M19.5,16.5 L22.5,16.5 L22.5,13.5 L19.5,13.5 L19.5,16.5 L19.5,16.5 Z M19.5,22.5 L22.5,22.5 L22.5,19.5 L19.5,19.5 L19.5,22.5 L19.5,22.5 Z M19.5,10.5 L22.5,10.5 L22.5,7.5 L19.5,7.5 L19.5,10.5 L19.5,10.5 Z" id="Shape" fill="#FFFFFF"></path>
                </g>
            </g>
        </g>
    </g>
</svg>