<?xml version="1.0" encoding="UTF-8" standalone="no"?>
<svg width="30px" height="30px" viewBox="0 0 30 30" version="1.1" xmlns="http://www.w3.org/2000/svg" xmlns:xlink="http://www.w3.org/1999/xlink">
    <!-- Generator: sketchtool 40.3 (33839) - http://www.bohemiancoding.com/sketch -->
    <title>8F31B629-FD49-48CF-B359-18B77634DEC1</title>
    <desc>Created with sketchtool.</desc>
    <defs></defs>
    <g id="Contract-List" stroke="none" stroke-width="1" fill="none" fill-rule="evenodd">
        <g transform="translate(-869.000000, -124.000000)" id="ic_list_black_24px">
            <g transform="translate(869.000000, 124.000000)">
                <g id="Group">
                    <path d="M0,1.99161703 C0,0.891677316 0.89784041,0 1.99161703,0 L28.008383,0 C29.1083227,0 30,0.89784041 30,1.99161703 L30,28.008383 C30,29.1083227 29.1021596,30 28.008383,30 L1.99161703,30 C0.891677316,30 0,29.1021596 0,28.008383 L0,1.99161703 Z" id="Shape" fill="#3A405B" opacity="0.5"></path>
                    <path d="M3.75,16.25 L6.25,16.25 L6.25,13.75 L3.75,13.75 L3.75,16.25 L3.75,16.25 Z M3.75,21.25 L6.25,21.25 L6.25,18.75 L3.75,18.75 L3.75,21.25 L3.75,21.25 Z M3.75,11.25 L6.25,11.25 L6.25,8.75 L3.75,8.75 L3.75,11.25 L3.75,11.25 Z M8.75,16.25 L26.25,16.25 L26.25,13.75 L8.75,13.75 L8.75,16.25 L8.75,16.25 Z M8.75,21.25 L26.25,21.25 L26.25,18.75 L8.75,18.75 L8.75,21.25 L8.75,21.25 Z M8.75,8.75 L8.75,11.25 L26.25,11.25 L26.25,8.75 L8.75,8.75 L8.75,8.75 Z" id="Shape" fill="#FFFFFF"></path>
                </g>
            </g>
        </g>
    </g>
</svg>