<?xml version="1.0" encoding="UTF-8" standalone="no"?>
<svg width="192px" height="192px" viewBox="0 0 192 192" version="1.1" xmlns="http://www.w3.org/2000/svg" xmlns:xlink="http://www.w3.org/1999/xlink">
    <!-- Generator: sketchtool 40.3 (33839) - http://www.bohemiancoding.com/sketch -->
    <title>06EDBB9D-0524-4CC7-9920-84E92A6CBC13</title>
    <desc>Created with sketchtool.</desc>
    <defs></defs>
    <g id="Contract-List" stroke="none" stroke-width="1" fill="none" fill-rule="evenodd" opacity="0.100000001">
        <g id="Blank-State" transform="translate(-503.000000, -363.000000)">
            <g id="contract-illustration" transform="translate(503.000000, 363.000000)">
                <g id="Group">
                    <g>
                        <g transform="translate(50.517647, 34.752941)">
                            <path d="M88.5023529,3.68305882 L87.0023529,2.18305882 L87.0023529,120.311059 L88.5023529,118.811059 L2.46235294,118.811059 L3.96235294,120.311059 L3.96235294,2.18305882 L2.46235294,3.68305882 L88.5023529,3.68305882 Z M0.962352941,0.683058824 L0.962352941,2.18305882 L0.962352941,120.311059 L0.962352941,121.811059 L2.46235294,121.811059 L88.5023529,121.811059 L90.0023529,121.811059 L90.0023529,120.311059 L90.0023529,2.18305882 L90.0023529,0.683058824 L88.5023529,0.683058824 L2.46235294,0.683058824 L0.962352941,0.683058824 Z" id="Rectangle-path" fill="#3A405B"></path>
                            <polygon id="Shape" fill="#2C3E50" points="78.7583529 46.4176471 78.7583529 43.4176471 12.0143529 43.4176471 12.0143529 46.4176471"></polygon>
                            <polygon id="Shape" fill="#2C3E50" points="78.7583529 27.5941176 78.7583529 24.5941176 12.0143529 24.5941176 12.0143529 27.5941176"></polygon>
                            <polygon id="Shape" fill="#2C3E50" points="78.7583529 19.3117647 78.7583529 16.3117647 12.0143529 16.3117647 12.0143529 19.3117647"></polygon>
                            <polygon id="Shape" fill="#2C3E50" points="78.7583529 55.4529412 78.7583529 52.4529412 12.0143529 52.4529412 12.0143529 55.4529412"></polygon>
                            <polygon id="Shape" fill="#2C3E50" points="78.7583529 65.2411765 78.7583529 62.2411765 12.0143529 62.2411765 12.0143529 65.2411765"></polygon>
                            <polygon id="Shape" fill="#2C3E50" points="78.7583529 75.0294118 78.7583529 72.0294118 12.0143529 72.0294118 12.0143529 75.0294118"></polygon>
                            <polygon id="Shape" fill="#2C3E50" points="78.7583529 84.0647059 78.7583529 81.0647059 12.0143529 81.0647059 12.0143529 84.0647059"></polygon>
                            <polygon id="Shape" fill="#2C3E50" points="72.8483529 105.147059 72.8483529 102.147059 38.8823529 102.147059 38.8823529 105.147059"></polygon>
                            <polygon id="Shape" fill="#2C3E50" points="18.3141496 106.898117 20.4625563 108.992001 33.5965563 95.5160006 31.4481496 93.4221171"></polygon>
                            <polygon id="Shape" fill="#2C3E50" points="31.4481496 108.992001 33.5965563 106.898117 20.4625563 93.4221171 18.3141496 95.5160006"></polygon>
                        </g>
                        <path d="M96,3 C147.282,3 189,44.718 189,96 C189,147.282 147.282,189 96,189 C44.718,189 3,147.282 3,96 C3,44.718 44.718,3 96,3 L96,3 Z M96,0 C42.978,0 0,42.978 0,96 C0,149.022 42.978,192 96,192 C149.022,192 192,149.022 192,96 C192,42.978 149.022,0 96,0 L96,0 L96,0 Z" id="Shape" fill="#3A405B"></path>
                    </g>
                </g>
            </g>
        </g>
    </g>
</svg>