<?xml version="1.0" encoding="UTF-8" standalone="no"?>
<svg width="44px" height="122px" viewBox="0 0 44 122" version="1.1" xmlns="http://www.w3.org/2000/svg" xmlns:xlink="http://www.w3.org/1999/xlink">
    <!-- Generator: sketchtool 40.3 (33839) - http://www.bohemiancoding.com/sketch -->
    <title>166D31DB-2100-4E2F-803F-57F323597035</title>
    <desc>Created with sketchtool.</desc>
    <defs></defs>
    <g id="Contract-List" stroke="none" stroke-width="1" fill="none" fill-rule="evenodd">
        <g id="Blank-State" transform="translate(-333.000000, -191.000000)" fill="#57CD75">
            <g id="green-arrow" transform="translate(333.000000, 191.000000)">
                <path d="M8.39317787,10.5124512 C8.62638761,65.9380638 15.161333,98.255934 25.8231576,112.420654 C31.0824144,119.407816 36.4621196,120.945238 41.1551648,119.532434 C41.6728307,119.376595 42.0264922,119.226325 42.189981,119.138868 C42.6769657,118.87836 43.2829281,119.061956 43.5434359,119.548941 C43.8039437,120.035926 43.6203478,120.641888 43.133363,120.902396 C42.8581551,121.049616 42.3833462,121.251361 41.7316911,121.447536 C36.2636445,123.093648 30.0078212,121.305848 24.2252331,113.623416 C13.3567721,99.1841705 6.77071828,67.0464446 6.40297954,12.3137557 L1.97851354,33.3116513 L0.0214864581,32.8992862 L6.15429896,3.79381744 L6.88481715,0.326880489 L8.0747305,3.66415705 L17.8039141,30.9509979 L15.9200781,31.6226838 L8.39317787,10.5124512 Z M7.63776253,6.45364863 C7.55754339,6.43290873 7.4734196,6.421875 7.38671875,6.421875 C7.23699248,6.421875 7.09495175,6.45478075 6.96743386,6.51375497 L6.1908945,4.33584295 L8.11132604,4.20618256 L7.63776253,6.45364863 Z" id="Combined-Shape"></path>
            </g>
        </g>
    </g>
</svg>