<?xml version="1.0" encoding="UTF-8" standalone="no"?>
<svg width="65px" height="66px" viewBox="0 0 65 66" version="1.1" xmlns="http://www.w3.org/2000/svg" xmlns:xlink="http://www.w3.org/1999/xlink">
    <!-- Generator: Sketch 40.3 (33839) - http://www.bohemiancoding.com/sketch -->
    <title>Combined Shape</title>
    <desc>Created with Sketch.</desc>
    <defs></defs>
    <g id="New-Contact-Modal---v1.1" stroke="none" stroke-width="1" fill="none" fill-rule="evenodd">
        <g id="Form-Error" transform="translate(-35.000000, -127.000000)" fill="#FFFFFF">
            <path d="M84.3205574,187.660467 C79.4064344,190.676107 73.6345479,192.413206 67.4599991,192.413206 C49.5328366,192.413206 35,177.769961 35,159.706603 C35,141.643245 49.5328366,127 67.4599991,127 C85.3871616,127 99.9199982,141.643245 99.9199982,159.706603 C99.9199982,168.014729 96.845604,175.599336 91.7805951,181.368412 C94.6088947,183.657896 97.2373773,185.562749 98.7329171,186.101139 C100.685165,186.803943 99.5932023,187.982593 98.753168,189.036357 C97.6830944,190.378689 96.8539278,190.810154 96.8539278,190.810154 C94.5465408,192.60699 90.7919621,192.619771 88.4595919,190.832379 L84.3205574,187.660467 L84.3205574,187.660467 Z M83.5136239,174.223093 C86.9435342,170.3747 89.030192,165.286185 89.030192,159.706603 C89.030192,147.70321 79.3728877,137.972538 67.4599991,137.972538 C55.5471105,137.972538 45.8898061,147.70321 45.8898061,159.706603 C45.8898061,171.709996 55.5471105,181.440668 67.4599991,181.440668 C69.9658981,181.440668 72.3719922,181.010106 74.6093888,180.218398 L73.3838323,179.279203 C71.0551556,177.494642 70.6284392,174.163705 72.423096,171.849198 L72.7223052,171.463318 C74.5203819,169.144401 77.7143906,168.881525 79.8730138,170.865908 C79.8730138,170.865908 81.3543496,172.266748 83.5136239,174.223093 L83.5136239,174.223093 Z" id="Combined-Shape"></path>
        </g>
    </g>
</svg>