<?xml version="1.0" encoding="UTF-8" standalone="no"?>
<svg width="45px" height="46px" viewBox="0 0 45 46" version="1.1" xmlns="http://www.w3.org/2000/svg" xmlns:xlink="http://www.w3.org/1999/xlink">
    <!-- Generator: sketchtool 40.3 (33839) - http://www.bohemiancoding.com/sketch -->
    <title>09D3315C-24B6-4AB8-B492-53FD0618B96A</title>
    <desc>Created with sketchtool.</desc>
    <defs>
        <linearGradient x1="29.7154018%" y1="29.7154018%" x2="78.8125797%" y2="78.8125797%" id="linearGradient-1">
            <stop stop-color="#E75050" offset="0%"></stop>
            <stop stop-color="#F7AE18" offset="100%"></stop>
        </linearGradient>
    </defs>
    <g id="Symbols" stroke="none" stroke-width="1" fill="none" fill-rule="evenodd">
        <g id="Header-Bar" transform="translate(-26.000000, -21.000000)" fill="url(#linearGradient-1)">
            <g id="logo-icon">
                <path d="M60.1240691,62.9699627 C56.7240695,65.0564335 52.7305977,66.2583036 48.4585306,66.2583036 C36.0550267,66.2583036 26,56.1268872 26,43.6291518 C26,31.1314164 36.0550267,21 48.4585306,21 C60.8620346,21 70.9170613,31.1314164 70.9170613,43.6291518 C70.9170613,49.3774052 68.7899394,54.6250682 65.2855444,58.6165954 C67.2423976,60.2006508 69.0610008,61.5185872 70.0957397,61.8910901 C71.4464675,62.3773481 70.6909567,63.1928362 70.109751,63.9219179 C69.369385,64.8506551 68.7956985,65.1491789 68.7956985,65.1491789 C67.199256,66.3923794 64.6015258,66.4012223 62.9877978,65.1645561 L60.1240691,62.9699627 L60.1240691,62.9699627 Z M59.5657652,53.6728688 C61.9388629,51.0102295 63.3825865,47.4895714 63.3825865,43.6291518 C63.3825865,35.324205 56.7008591,28.5917154 48.4585306,28.5917154 C40.2162022,28.5917154 33.5344748,35.324205 33.5344748,43.6291518 C33.5344748,51.9340986 40.2162022,58.6665881 48.4585306,58.6665881 C50.1923203,58.6665881 51.8570566,58.3686894 53.4050739,57.8209196 L52.5571318,57.1711067 C50.9459593,55.9363988 50.6507214,53.631779 51.8924144,52.0304103 L52.0994323,51.7634265 C53.3434915,50.1590062 55.5533727,49.9771268 57.046888,51.3500885 C57.046888,51.3500885 58.0717995,52.3193061 59.5657652,53.6728688 L59.5657652,53.6728688 Z"></path>
            </g>
        </g>
    </g>
</svg>