<?xml version="1.0" encoding="UTF-8" standalone="no"?>
<svg width="151px" height="151px" viewBox="0 0 151 151" version="1.1" xmlns="http://www.w3.org/2000/svg" xmlns:xlink="http://www.w3.org/1999/xlink">
    <!-- Generator: Sketch 40.3 (33839) - http://www.bohemiancoding.com/sketch -->
    <title>success-img</title>
    <desc>Created with Sketch.</desc>
    <defs></defs>
    <g id="Page-1" stroke="none" stroke-width="1" fill="none" fill-rule="evenodd">
        <g id="New-Contact-Added" transform="translate(-510.000000, -310.000000)" fill="#FFFFFF">
            <g id="Group-3" transform="translate(445.000000, 310.000000)">
                <g id="success-img" transform="translate(65.000000, 0.000000)">
                    <path d="M150.5,75.5 C150.5,34.0786438 116.921356,0.5 75.5,0.5 C34.0786438,0.5 0.5,34.0786438 0.5,75.5 C0.5,116.921356 34.0786438,150.5 75.5,150.5 C116.921356,150.5 150.5,116.921356 150.5,75.5 Z M1.5,75.5 C1.5,34.6309285 34.6309285,1.5 75.5,1.5 C116.369071,1.5 149.5,34.6309285 149.5,75.5 C149.5,116.369071 116.369071,149.5 75.5,149.5 C34.6309285,149.5 1.5,116.369071 1.5,75.5 Z" id="Oval-7"></path>
                    <polygon id="Stroke-50" points="63.6378125 103.806815 64.3538041 104.540963 65.0697057 103.806728 115.497807 52.0872021 114.065829 50.6909797 63.637727 102.410505 65.0696202 102.410417 39.6431766 76.3392102 38.2113689 77.735608"></polygon>
                </g>
            </g>
        </g>
    </g>
</svg>