<svg xmlns="http://www.w3.org/2000/svg" width="53" height="53" viewBox="0 0 53 53" xmlns:xlink="http://www.w3.org/1999/xlink">
  <defs>
    <polygon id="a" points="0 .049 0 11.516 39.024 11.516 39.024 .049"/>
    <polygon id="c" points="16.438 14.19 32.796 14.19 32.796 .049 .08 .049 .08 14.19 16.438 14.19"/>
  </defs>
  <g fill="none" fill-rule="evenodd">
    <g transform="translate(0 38.353)">
      <mask id="b" fill="white">
        <use xlink:href="#a"/>
      </mask>
      <path fill="#238EC2" d="M35.925602,3.91465297 C35.7021456,5.39640684 34.5818259,5.39640684 33.4981477,5.39640684 L32.8815067,5.39640684 L33.3139908,2.62983986 C33.3401904,2.46262239 33.4829595,2.33951045 33.6505993,2.33951045 L33.9330998,2.33951045 C34.6708667,2.33951045 35.3676254,2.33951045 35.7268264,2.7638823 C35.9417395,3.01796847 36.0068589,3.39439954 35.925602,3.91465297 L35.925602,3.91465297 Z M35.4540083,0.0487078404 L31.3670532,0.0487078404 C31.0875903,0.0487078404 30.8497051,0.254086175 30.8062289,0.532909797 L29.1535627,11.1178522 C29.1209081,11.3266823 29.2807639,11.515569 29.4899814,11.515569 L31.5869024,11.515569 C31.7824505,11.515569 31.949141,11.3717466 31.9795174,11.1767235 L32.4482633,8.17582195 C32.4917395,7.89699833 32.7296247,7.69162 33.0090876,7.69162 L34.302363,7.69162 C36.9942818,7.69162 38.547845,6.37574125 38.9539395,3.76757063 C39.1367675,2.62696341 38.9613437,1.73066244 38.4326045,1.10321341 C37.8512761,0.413441354 36.8211363,0.0487078404 35.4540083,0.0487078404 L35.4540083,0.0487078404 Z" mask="url(#b)"/>
      <path fill="#253666" d="M6.7764059,3.91465297 C6.55294949,5.39640684 5.43243993,5.39640684 4.34895161,5.39640684 L3.73231064,5.39640684 L4.16479467,2.62983986 C4.19099432,2.46262239 4.33357356,2.33951045 4.50121333,2.33951045 L4.78390373,2.33951045 C5.52148076,2.33951045 6.21842935,2.33951045 6.57763031,2.7638823 C6.79254336,3.01796847 6.85766278,3.39439954 6.7764059,3.91465297 L6.7764059,3.91465297 Z M6.30462239,0.0487078404 L2.21766725,0.0487078404 C1.9383942,0.0487078404 1.70031914,0.254086175 1.65684292,0.532909797 L0.00417675538,11.1178522 C-0.0282880251,11.3266823 0.131377942,11.515569 0.340785269,11.515569 L2.29208944,11.515569 C2.57155235,11.515569 2.80943755,11.3101907 2.85291378,11.031367 L3.29887734,8.17582195 C3.34254342,7.89699833 3.58042862,7.69162 3.85989153,7.69162 L5.15297702,7.69162 C7.84508572,7.69162 9.39864887,6.37574125 9.8047434,3.76757063 C9.98738152,2.62696341 9.81214765,1.73066244 9.28321854,1.10321341 C8.70207998,0.413441354 7.67194022,0.0487078404 6.30462239,0.0487078404 L6.30462239,0.0487078404 Z" mask="url(#b)"/>
    </g>
    <path fill="#253666" d="M15.7926918,46.0672618 C15.6035987,47.1967468 14.7160382,47.9549783 13.5837578,47.9549783 C13.0162886,47.9549783 12.5619715,47.7705021 12.2697885,47.4213014 C11.9802634,47.075169 11.8712881,46.5821459 11.9631767,46.0329362 C12.1393598,44.9136147 13.0411593,44.1310293 14.1561631,44.1310293 C14.7118614,44.1310293 15.1631409,44.3170395 15.4610194,44.6695002 C15.7607966,45.0244538 15.8785051,45.5209286 15.7926918,46.0672618 L15.7926918,46.0672618 Z M18.5199232,42.2199177 L16.5631133,42.2199177 C16.3952837,42.2199177 16.2525146,42.3430297 16.2265048,42.5104389 L16.1405016,43.0631003 L16.0036179,42.8628996 C15.5798671,42.2413952 14.6353509,42.0339075 13.6921635,42.0339075 C11.5301231,42.0339075 9.68323779,43.6888235 9.32365712,46.0097329 C9.13665239,47.1677906 9.40225607,48.2742639 10.0521212,49.0466859 C10.6493973,49.7562096 11.5016452,50.0517166 12.5169765,50.0517166 C14.2596327,50.0517166 15.2261719,48.9208893 15.2261719,48.9208893 L15.1388397,49.4702907 C15.1061851,49.6791208 15.2660409,49.8681993 15.4754482,49.8681993 L17.2376593,49.8681993 C17.5171222,49.8681993 17.7550074,49.6630127 17.7984836,49.3841891 L18.8565317,42.6174427 C18.8891864,42.4086127 18.7293305,42.2199177 18.5199232,42.2199177 L18.5199232,42.2199177 Z"/>
    <path fill="#238EC2" d="M44.9418879,46.0672618 C44.7529846,47.1967468 43.8652343,47.9549783 42.7331437,47.9549783 C42.1654847,47.9549783 41.7111676,47.7705021 41.4189846,47.4213014 C41.1294595,47.075169 41.0204841,46.5821459 41.1123728,46.0329362 C41.2885559,44.9136147 42.1905452,44.1310293 43.305549,44.1310293 C43.8612474,44.1310293 44.3123369,44.3170395 44.6102155,44.6695002 C44.9099927,45.0244538 45.0277012,45.5209286 44.9418879,46.0672618 L44.9418879,46.0672618 Z M47.6693092,42.2199177 L45.7123094,42.2199177 C45.5446696,42.2199177 45.4019005,42.3430297 45.3758907,42.5104389 L45.2896977,43.0631003 L45.1530039,42.8628996 C44.7290632,42.2413952 43.7845469,42.0339075 42.8413596,42.0339075 C40.6793192,42.0339075 38.8324339,43.6888235 38.4728532,46.0097329 C38.2858485,47.1677906 38.5514522,48.2742639 39.2015072,49.0466859 C39.7985933,49.7562096 40.6508413,50.0517166 41.6661726,50.0517166 C43.4088288,50.0517166 44.3755578,48.9208893 44.3755578,48.9208893 L44.2880358,49.4702907 C44.2553812,49.6791208 44.415237,49.8681993 44.6246443,49.8681993 L46.3870453,49.8681993 C46.6663183,49.8681993 46.9042035,49.6630127 46.9478696,49.3841891 L48.0057278,42.6174427 C48.0383824,42.4086127 47.8785266,42.2199177 47.6693092,42.2199177 L47.6693092,42.2199177 Z"/>
    <g transform="translate(19.745 38.353)">
      <mask id="d" fill="white">
        <use xlink:href="#c"/>
      </mask>
      <path fill="#253666" d="M9.19835446,3.86728747 L7.23129253,3.86728747 C7.04314869,3.86728747 6.8671554,3.96163494 6.7615974,4.11868896 L4.04822523,8.15511153 L2.89828853,4.27631827 C2.82633442,4.03373789 2.60515624,3.86728747 2.35436107,3.86728747 L0.420713178,3.86728747 C0.187194582,3.86728747 0.0229721546,4.09932088 0.0981537514,4.32253319 L2.26418112,10.7439141 L0.226873758,13.6473999 C0.0670179386,13.8752146 0.228392578,14.1904732 0.504817843,14.1904732 L2.46998125,14.1904732 C2.65622657,14.1904732 2.83070103,14.0982351 2.93663874,13.943674 L9.47838693,4.40748427 C9.6348254,4.17928612 9.47326091,3.86728747 9.19835446,3.86728747" mask="url(#d)"/>
      <path fill="#238EC2" d="M30.2311656,0.339420778 L28.5538186,11.118044 C28.5213538,11.3268741 28.6812096,11.515569 28.8904271,11.515569 L30.5772667,11.515569 C30.8567296,11.515569 31.0946148,11.3101907 31.1380911,11.031367 L32.7920862,0.446616379 C32.8247408,0.237594544 32.664885,0.0487078404 32.4554777,0.0487078404 L30.5677741,0.0487078404 C30.3999445,0.0487078404 30.2571754,0.172011547 30.2311656,0.339420778" mask="url(#d)"/>
    </g>
    <path fill="#238EC2" d="M39.0131735,8.71621051 C39.4268621,6.05185329 39.0103257,4.23892446 37.583584,2.59685659 C36.0127443,0.788913604 33.1750187,0.0143822363 29.5442792,0.0143822363 L19.0051862,0.0143822363 C18.2630528,0.0143822363 17.6312236,0.559756639 17.5156034,1.30015417 L13.1271625,29.4087969 C13.0405897,29.9633759 13.4649101,30.4648366 14.0207983,30.4648366 L20.527044,30.4648366 L20.0780428,33.3412838 C20.0022917,33.8264446 20.3734533,34.2651987 20.8598555,34.2651987 L26.3439353,34.2651987 C26.9930411,34.2651987 27.5457017,33.788092 27.6468931,33.1405078 L27.7006214,32.8589995 L28.7337988,26.2418284 L28.800437,25.8761361 C28.9014386,25.2285519 29.4540992,24.7514452 30.103205,24.7514452 L30.9237476,24.7514452 C36.2365804,24.7514452 40.3966288,22.5710982 41.6122544,16.2659258 C42.1201099,13.6311001 41.8575439,11.4319603 40.5143373,9.88596574 C40.1080529,9.41825541 39.6026655,9.0316609 39.0131735,8.71621051"/>
    <path fill="#20264E" d="M39.0131735,8.71621051 C39.4268621,6.05185329 39.0103257,4.23892446 37.583584,2.59685659 C36.0127443,0.788913604 33.1750187,0.0143822363 29.5442792,0.0143822363 L19.0051862,0.0143822363 C18.2630528,0.0143822363 17.6312236,0.559756639 17.5156034,1.30015417 L13.1271625,29.4087969 C13.0405897,29.9633759 13.4649101,30.4648366 14.0207983,30.4648366 L20.527044,30.4648366 L22.1614843,19.9968697 L22.1107937,20.3249764 C22.2264139,19.5847706 22.8529272,19.0393962 23.5948708,19.0393962 L26.6871886,19.0393962 C32.7603808,19.0393962 37.5158067,16.5472423 38.9053373,9.33963252 C38.9465352,9.12620013 38.981658,8.91947946 39.0131735,8.71621051"/>
    <path fill="#253666" d="M23.9172404,8.7516867 C23.9867264,8.3062209 24.2696067,7.94167915 24.6506407,7.757203 C24.8237862,7.6734025 25.0172459,7.62680405 25.2201982,7.62680405 L33.4814407,7.62680405 C34.4601304,7.62680405 35.3725616,7.69142823 36.2069634,7.82719655 C36.4454182,7.8659327 36.677418,7.91061352 36.9027729,7.96104723 C37.1281278,8.0116727 37.3468379,8.06805106 37.5587133,8.13075761 C37.6646511,8.16182324 37.7686902,8.19461474 37.8712106,8.22894035 C38.2807225,8.36643453 38.6621362,8.52847439 39.0131735,8.71621051 C39.4268621,6.05185329 39.0103257,4.23892446 37.583584,2.59685659 C36.0127443,0.788913604 33.1750187,0.0143822363 29.5442792,0.0143822363 L19.0051862,0.0143822363 C18.2630528,0.0143822363 17.6312236,0.559756639 17.5156034,1.30015417 L13.1271625,29.4087969 C13.0405897,29.9633759 13.4649101,30.4648366 14.0207983,30.4648366 L20.527044,30.4648366 L23.9172404,8.7516867"/>
  </g>
</svg>
