<?xml version="1.0" encoding="UTF-8" standalone="no"?>
<svg width="40px" height="40px" viewBox="0 0 40 40" version="1.1" xmlns="http://www.w3.org/2000/svg" xmlns:xlink="http://www.w3.org/1999/xlink">
    <!-- Generator: sketchtool 40.3 (33839) - http://www.bohemiancoding.com/sketch -->
    <title>C52B8941-4243-4E6D-8A96-F78C57F2AECD</title>
    <desc>Created with sketchtool.</desc>
    <defs></defs>
    <g id="Contract-List" stroke="none" stroke-width="1" fill="none" fill-rule="evenodd" opacity="0.5">
        <g id="Grid-Icons" transform="translate(-448.000000, -146.000000)">
            <g id="Archived" transform="translate(448.000000, 146.000000)">
                <g id="Group" fill="#3A405B">
                    <path d="M0.418604651,35.0232558 L0.418604651,10.372093 C0.418604651,10.0930233 0.465116279,9.76744186 0.604651163,9.48837209 C0.744186047,9.20930233 0.88372093,8.97674419 1.11627907,8.74418605 L9.48837209,0.697674419 C9.6744186,0.511627907 9.95348837,0.325581395 10.1860465,0.23255814 C10.4651163,0.139534884 10.744186,0.0930232558 11.0232558,0.0930232558 L27.1627907,0.0930232558 C29.9069767,0.0930232558 32.0930233,2.27906977 32.0930233,5.02325581 L32.0930233,7.6744186 L32.0930233,8.46511628 L32.0930233,20.1395349 C31.7674419,20 31.3488372,20 30.9302326,20 C30.5581395,20 30.1860465,20 29.8139535,20.0465116 L29.8139535,7.62790698 L29.8139535,4.97674419 C29.8139535,3.53488372 28.6511628,2.37209302 27.2093023,2.37209302 L11.7674419,2.37209302 L11.7674419,6.13953488 C11.7674419,8.8372093 9.53488372,11.0697674 6.8372093,11.0697674 L2.69767442,11.0697674 L2.69767442,34.9767442 C2.69767442,36.4186047 3.86046512,37.5813953 5.30232558,37.5813953 L21.8604651,37.5813953 C22.5116279,38.4651163 23.255814,39.255814 24.0930233,39.9069767 L5.34883721,39.9069767 C2.60465116,39.9534884 0.418604651,37.7209302 0.418604651,35.0232558 L0.418604651,35.0232558 Z" id="Shape"></path>
                </g>
                <g id="Group-9" transform="translate(21.666667, 22.666667)">
                    <circle id="Oval-3" fill="#3A405B" cx="9.166646" cy="8.66666381" r="8.66666635"></circle>
                    <g id="noun_14744_cc" transform="translate(4.000041, 3.333331)">
                        <g id="Group">
                            <g id="Shape">
                                <path d="M1.75197135,3.96299975 C2.3418495,3.96299975 2.82104664,4.46317721 2.82104664,5.0766995 L2.82104664,5.49106045 L2.82162011,5.49106045 L2.82162011,6.86328696 C2.82162011,7.26747439 3.13531187,7.59338567 3.52045883,7.59338567 L7.20344097,7.59338567 C7.58858793,7.59338567 7.90216499,7.26747439 7.90216499,6.86328696 L7.90216499,6.84593215 L7.90216499,6.84593215 L7.90216499,5.0766995 C7.90216499,4.46987975 8.37092486,3.97401107 8.95197146,3.9645557 L8.95197146,3.96299975 L8.9705521,3.96299975 L10.1651041,3.96299975 L8.2565736,0.482702968 L2.4674409,0.482702968 L0.558795707,3.96299975 L1.4528459,3.96299975 L1.75197135,3.96299975 L1.75197135,3.96299975 Z"></path>
                                <path d="M8.9706668,4.34803705 C8.58334063,4.34803705 8.26976356,4.67550428 8.26976356,5.0766995 L8.26976356,5.59447115 L8.27068113,5.59447115 L8.27068113,6.86328696 C8.27068113,7.47980146 7.79148399,7.97985924 7.20355566,7.97985924 L3.52045883,7.97985924 C2.9326452,7.97985924 2.45333337,7.47980146 2.45333337,6.86328696 L2.45333337,6.84593215 L2.45218642,6.84593215 L2.45218642,5.0766995 C2.45218642,4.67550428 2.13826526,4.34803705 1.75197135,4.34803705 L1.4528459,4.34803705 L0.482408609,4.34803705 L0.482408609,4.57712048 L0.482408609,8.53688865 L10.2417206,8.53688865 L10.2417206,4.57712048 L10.2417206,4.34803705 L8.9706668,4.34803705 L8.9706668,4.34803705 Z"></path>
                                <path d="M10.5893622,3.96299975 L8.47059511,0.0977853521 L2.25341939,0.0977853521 L0.134537636,3.96299975 L0.113433693,3.96299975 L0.113433693,3.99818811 L0.113433693,4.57712048 L0.113433693,8.92001094 L10.6104661,8.92001094 L10.6104661,4.57712048 L10.6104661,3.99818811 L10.6104661,3.96299975 L10.5893622,3.96299975 L10.5893622,3.96299975 Z M2.4674409,0.482702968 L8.2566883,0.482702968 L10.1653335,3.96311944 L8.9706668,3.96311944 L8.95208615,3.96311944 L8.95208615,3.96467538 C8.37103955,3.97413076 7.90227969,4.46999944 7.90227969,5.07681919 L7.90227969,6.84605184 L7.90227969,6.84605184 L7.90227969,6.86340665 C7.90227969,7.26759408 7.58881732,7.59350536 7.20355566,7.59350536 L3.52045883,7.59350536 C3.13531187,7.59350536 2.82162011,7.26759408 2.82162011,6.86340665 L2.82162011,5.49106045 L2.82104664,5.49106045 L2.82104664,5.0766995 C2.82104664,4.46317721 2.3418495,3.96299975 1.75197135,3.96299975 L1.4528459,3.96299975 L0.558795707,3.96299975 L2.4674409,0.482702968 L2.4674409,0.482702968 Z M10.2417206,8.53688865 L0.482408609,8.53688865 L0.482408609,4.57712048 L0.482408609,4.34803705 L1.4529606,4.34803705 L1.75208605,4.34803705 C2.13837996,4.34803705 2.45230111,4.67550428 2.45230111,5.0766995 L2.45230111,6.84593215 L2.45344807,6.84593215 L2.45344807,6.86328696 C2.45344807,7.47980146 2.9326452,7.97985924 3.52057353,7.97985924 L7.20355566,7.97985924 C7.79148399,7.97985924 8.27068113,7.47980146 8.27068113,6.86328696 L8.27068113,5.59447115 L8.26976356,5.59447115 L8.26976356,5.0766995 C8.26976356,4.67550428 8.58334063,4.34803705 8.9706668,4.34803705 L10.2417206,4.34803705 L10.2417206,4.57712048 L10.2417206,8.53688865 L10.2417206,8.53688865 Z" stroke="#FFFFFF" stroke-width="0.5" fill="#3A405B"></path>
                            </g>
                        </g>
                    </g>
                </g>
            </g>
        </g>
    </g>
</svg>