<?xml version="1.0" encoding="UTF-8" standalone="no"?>
<svg width="40px" height="41px" viewBox="0 0 40 41" version="1.1" xmlns="http://www.w3.org/2000/svg" xmlns:xlink="http://www.w3.org/1999/xlink">
    <!-- Generator: sketchtool 40.3 (33839) - http://www.bohemiancoding.com/sketch -->
    <title>F0EC2634-289C-42C8-BF23-B6F8E062221C</title>
    <desc>Created with sketchtool.</desc>
    <defs></defs>
    <g id="Contract-List" stroke="none" stroke-width="1" fill="none" fill-rule="evenodd" opacity="0.5">
        <g id="Grid-Icons" transform="translate(-268.000000, -146.000000)" fill="#3A405B">
            <g id="Pending" transform="translate(268.000000, 146.000000)">
                <g id="Group">
                    <path d="M24.2857143,40.9047619 L5.04761905,40.9047619 C2.23809524,40.9047619 0,38.6190476 0,35.8571429 L0,10.6190476 C0,10.3333333 0.0476190476,10 0.19047619,9.71428571 C0.333333333,9.42857143 0.476190476,9.19047619 0.714285714,8.95238095 L9.33333333,0.714285714 C9.52380952,0.523809524 9.80952381,0.333333333 10.047619,0.238095238 C10.3333333,0.142857143 10.6190476,0.0952380952 10.9047619,0.0952380952 L27.4285714,0.0952380952 C30.2380952,0.0952380952 32.4761905,2.33333333 32.4761905,5.14285714 L32.4761905,7.85714286 L32.4761905,8.66666667 L32.4761905,20.6190476 C32.0952381,20.4761905 31.6666667,20.4761905 31.2857143,20.4761905 C30.9047619,20.4761905 30.5238095,20.4761905 30.1428571,20.5238095 L30.1428571,7.80952381 L30.1428571,5.0952381 C30.1428571,3.61904762 28.952381,2.42857143 27.4761905,2.42857143 L11.6666667,2.42857143 L11.6666667,6.28571429 C11.6666667,9.04761905 9.38095238,11.3333333 6.61904762,11.3333333 L2.38095238,11.3333333 L2.38095238,35.8095238 C2.38095238,37.2857143 3.57142857,38.4761905 5.04761905,38.4761905 L22,38.4761905 C22.6190476,39.4285714 23.4285714,40.2380952 24.2857143,40.9047619 L24.2857143,40.9047619 Z M34.1428571,34.0952381 L34.1428571,34.0952381 C34.0952381,34.0952381 34.0952381,34.0952381 34.1428571,34.0952381 L32.2380952,31.8095238 C32.1428571,31.7142857 32.0952381,31.5714286 32.0952381,31.4761905 L31.8095238,27.2380952 L31.8095238,27.2380952 C31.7619048,26.8571429 31.4285714,26.5238095 31.047619,26.5238095 C30.6666667,26.5238095 30.3333333,26.8095238 30.2857143,27.1904762 L30.2857143,27.1904762 L30.2857143,27.1904762 L30.2857143,27.2380952 L29.952381,31.9047619 L29.952381,32 L29.952381,32 L29.952381,32 L29.952381,32 C29.952381,32 29.952381,32 29.952381,32.047619 C29.952381,32.3333333 30.047619,32.6190476 30.2857143,32.8095238 C30.3333333,32.8571429 30.3809524,32.9047619 30.4285714,32.952381 L33.047619,35.1428571 L33.047619,35.1428571 C33.3333333,35.3809524 33.8095238,35.3809524 34.0952381,35.0952381 C34.3333333,34.8571429 34.3333333,34.4285714 34.1428571,34.0952381 L34.1428571,34.0952381 L34.1428571,34.0952381 Z M40,31.9047619 C40,36.8095238 36,40.8095238 31.0952381,40.8095238 C26.1904762,40.8095238 22.1904762,36.8095238 22.1904762,31.9047619 C22.1904762,27 26.1904762,23 31.0952381,23 C36,22.952381 40,26.952381 40,31.9047619 L40,31.9047619 Z" id="Shape"></path>
                </g>
            </g>
        </g>
    </g>
</svg>