<?xml version="1.0" encoding="UTF-8" standalone="no"?>
<svg width="40px" height="41px" viewBox="0 0 40 41" version="1.1" xmlns="http://www.w3.org/2000/svg" xmlns:xlink="http://www.w3.org/1999/xlink">
    <!-- Generator: sketchtool 40.3 (33839) - http://www.bohemiancoding.com/sketch -->
    <title>DE0590B7-0C5A-4D38-9575-E83308DDA3C0</title>
    <desc>Created with sketchtool.</desc>
    <defs></defs>
    <g id="Contract-List" stroke="none" stroke-width="1" fill="none" fill-rule="evenodd" opacity="0.5">
        <g id="Grid-Icons" transform="translate(-178.000000, -146.000000)">
            <g id="Sent" transform="translate(178.000000, 146.000000)">
                <g id="Group">
                    <g id="Group-8">
                        <path d="M24.2857143,40.9047619 L5.04761905,40.9047619 C2.23809524,40.9047619 0,38.6190476 0,35.8571429 L0,10.6190476 C0,10.3333333 0.0476190476,10 0.19047619,9.71428571 C0.333333333,9.42857143 0.476190476,9.19047619 0.714285714,8.95238095 L9.33333333,0.714285714 C9.52380952,0.523809524 9.80952381,0.333333333 10.047619,0.238095238 C10.3333333,0.142857143 10.6190476,0.0952380952 10.9047619,0.0952380952 L27.4285714,0.0952380952 C30.2380952,0.0952380952 32.4761905,2.33333333 32.4761905,5.14285714 L32.4761905,7.85714286 L32.4761905,8.66666667 L32.4761905,20.6190476 C32.0952381,20.4761905 31.6666667,20.4761905 31.2857143,20.4761905 C30.9047619,20.4761905 30.5238095,20.4761905 30.1428571,20.5238095 L30.1428571,7.80952381 L30.1428571,5.0952381 C30.1428571,3.61904762 28.952381,2.42857143 27.4761905,2.42857143 L11.6666667,2.42857143 L11.6666667,6.28571429 C11.6666667,9.04761905 9.38095238,11.3333333 6.61904762,11.3333333 L2.38095238,11.3333333 L2.38095238,35.8095238 C2.38095238,37.2857143 3.57142857,38.4761905 5.04761905,38.4761905 L22,38.4761905 C22.6190476,39.4285714 23.4285714,40.2380952 24.2857143,40.9047619 L24.2857143,40.9047619 Z M40,31.9047619 C40,36.8095238 36,40.8095238 31.0952381,40.8095238 C26.1904762,40.8095238 22.1904762,36.8095238 22.1904762,31.9047619 C22.1904762,27 26.1904762,23 31.0952381,23 C36,22.952381 40,26.952381 40,31.9047619 L40,31.9047619 Z" id="Shape" fill="#3A405B"></path>
                        <path d="M34.4596633,29.3390082 L34.483666,34.1245039 L35.3073562,34.1262082 L35.3147634,28.4839081 L35.4154331,28.3832383 L35.3150274,28.2828326 L35.3155663,27.8723173 L35.3154202,27.7141729 L35.1572757,27.7141729 L34.7515205,27.7193257 L34.6476277,27.6154329 L34.5410622,27.7219984 L28.9738468,27.7926988 L28.9338649,28.5747028 L33.6883579,28.5747028 L27.7273613,34.5356993 L27.6154329,34.6476277 L28.3832383,35.4154331 L28.4951667,35.3035047 L34.4596633,29.3390082 Z" id="Combined-Shape" fill="#FFFFFF" transform="translate(31.515433, 31.515433) rotate(45.000000) translate(-31.515433, -31.515433) "></path>
                    </g>
                </g>
            </g>
        </g>
    </g>
</svg>