<?xml version="1.0" encoding="UTF-8" standalone="no"?>
<svg width="40px" height="40px" viewBox="0 0 40 40" version="1.1" xmlns="http://www.w3.org/2000/svg" xmlns:xlink="http://www.w3.org/1999/xlink">
    <!-- Generator: sketchtool 40.3 (33839) - http://www.bohemiancoding.com/sketch -->
    <title>3ED861BA-3598-415A-A65F-6C63E9B1149E</title>
    <desc>Created with sketchtool.</desc>
    <defs></defs>
    <g id="Contract-List" stroke="none" stroke-width="1" fill="none" fill-rule="evenodd">
        <g id="Grid-Icons" transform="translate(-538.000000, -57.000000)" fill="#6412FE">
            <g id="Signed" transform="translate(538.000000, 57.000000)">
                <g id="Group">
                    <path d="M0.418604651,35.0232558 L0.418604651,10.372093 C0.418604651,10.0930233 0.465116279,9.76744186 0.604651163,9.48837209 C0.744186047,9.20930233 0.88372093,8.97674419 1.11627907,8.74418605 L9.48837209,0.697674419 C9.6744186,0.511627907 9.95348837,0.325581395 10.1860465,0.23255814 C10.4651163,0.139534884 10.744186,0.0930232558 11.0232558,0.0930232558 L27.1627907,0.0930232558 C29.9069767,0.0930232558 32.0930233,2.27906977 32.0930233,5.02325581 L32.0930233,7.6744186 L32.0930233,8.46511628 L32.0930233,20.1395349 C31.7674419,20 31.3488372,20 30.9302326,20 C30.5581395,20 30.1860465,20 29.8139535,20.0465116 L29.8139535,7.62790698 L29.8139535,4.97674419 C29.8139535,3.53488372 28.6511628,2.37209302 27.2093023,2.37209302 L11.7674419,2.37209302 L11.7674419,6.13953488 C11.7674419,8.8372093 9.53488372,11.0697674 6.8372093,11.0697674 L2.69767442,11.0697674 L2.69767442,34.9767442 C2.69767442,36.4186047 3.86046512,37.5813953 5.30232558,37.5813953 L21.8604651,37.5813953 C22.5116279,38.4651163 23.255814,39.255814 24.0930233,39.9069767 L5.34883721,39.9069767 C2.60465116,39.9534884 0.418604651,37.7209302 0.418604651,35.0232558 L0.418604651,35.0232558 Z M24.8372093,37.255814 C21.4418605,33.8604651 21.4418605,28.4186047 24.8372093,25.0232558 C28.2325581,21.627907 33.6744186,21.627907 37.0697674,25.0232558 C40.4651163,28.4186047 40.4651163,33.8604651 37.0697674,37.255814 C33.6744186,40.6511628 28.2325581,40.6511628 24.8372093,37.255814 L24.8372093,37.255814 Z M26.1860465,32.0930233 L27.9069767,33.8139535 L28.5116279,34.4186047 L28.6976744,34.6046512 C29.1627907,35.0697674 29.9069767,35.0697674 30.3255814,34.6046512 L35.7209302,29.3023256 C36.1860465,28.8372093 36.1860465,28.0930233 35.7209302,27.6744186 C35.255814,27.2093023 34.5116279,27.2093023 34.0930233,27.6744186 L29.5813953,32.1860465 L27.8604651,30.4651163 C27.3953488,30 26.6511628,30 26.2325581,30.4651163 C25.7209302,30.8837209 25.7209302,31.627907 26.1860465,32.0930233 L26.1860465,32.0930233 Z" id="Shape"></path>
                </g>
            </g>
        </g>
    </g>
</svg>