<?xml version="1.0" standalone="no"?>
<!DOCTYPE svg PUBLIC "-//W3C//DTD SVG 1.1//EN" "http://www.w3.org/Graphics/SVG/1.1/DTD/svg11.dtd" >
<svg xmlns="http://www.w3.org/2000/svg">
<metadata>
<json>
<![CDATA[
{
	"fontFamily": "icomoon",
	"majorVersion": 1,
	"minorVersion": 0,
	"version": "Version 1.0",
	"fontId": "icomoon",
	"psName": "icomoon",
	"subFamily": "Regular",
	"fullName": "icomoon",
	"description": "Font generated by IcoMoon."
}
]]>
</json>
</metadata>
<defs>
<font id="icomoon" horiz-adv-x="1024">
<font-face units-per-em="1024" ascent="960" descent="-64" />
<missing-glyph horiz-adv-x="1024" />
<glyph unicode="&#x20;" horiz-adv-x="512" d="" />
<glyph unicode="&#xe900;" glyph-name="camera" data-tags="camera" d="M754.897 696.426l6.996-2.918-91.796 92.705c-3.13 2.492-3.13 2.492-7.678 3.373v-9.846l6.962 6.962c-16.48 16.48-37.55 25.606-60.359 25.606h-190.864c-24.435 0-47.024-10.243-63.177-27.984l-2.566-6.629 9.846-0.227-7.006 6.918-89.751-90.888 7.006 2.928h-156.781c-47.841 0-86.192-37.719-86.192-85.283v-459.209c0-47.735 38.525-86.419 86.192-86.419h792.54c47.513 0 86.192 38.758 86.192 86.419v459.209c0 47.491-38.503 85.283-86.192 85.283h-153.373zM974.769 611.143v-459.209c0-36.794-29.871-66.727-66.499-66.727h-792.54c-36.772 0-66.499 29.849-66.499 66.727v459.209c0 36.614 29.461 65.591 66.499 65.591h156.781l7.006 2.928 89.751 90.888 2.84 6.918-9.846 0.227 7.281-6.629c12.466 13.692 29.793 21.549 48.615 21.549h190.864c17.469 0 33.57-6.974 45.98-19.384l7.417-3.338c-4.295 0.831-4.295 0.831-5.184 1.536-0.91 0.708 90.666-91.777 90.666-91.777l6.996-2.918h153.373c36.894 0 66.499-29.058 66.499-65.591zM311.896 400.511c0 110.604 89.821 200.559 200.104 200.559 110.431 0 200.104-89.875 200.104-200.559 0-110.537-89.753-200.559-200.104-200.559-110.204 0-200.104 90.102-200.104 200.559zM731.796 400.511c0 121.55-98.48 220.251-219.796 220.251-121.166 0-219.796-98.778-219.796-220.251 0-121.323 98.707-220.251 219.796-220.251 121.24 0 219.796 98.851 219.796 220.251zM871.991 597.056c0 12.261 9.882 22.192 21.964 22.192s21.964-9.931 21.964-22.192c0-12.261-9.882-22.192-21.964-22.192s-21.964 9.931-21.964 22.192zM935.612 597.056c0 23.115-18.677 41.884-41.657 41.884s-41.657-18.769-41.657-41.884c0-23.115 18.677-41.884 41.657-41.884s41.657 18.769 41.657 41.884zM343.555 400.511c0-93.223 75.378-168.899 168.445-168.899 92.992 0 168.445 75.602 168.445 168.899s-75.453 168.899-168.445 168.899c-93.143 0-168.445-75.526-168.445-168.899zM660.753 400.511c0-82.43-66.645-149.207-148.753-149.207-82.173 0-148.753 66.843-148.753 149.207 0 82.511 66.499 149.207 148.753 149.207 82.107 0 148.753-66.777 148.753-149.207z" />
<glyph unicode="&#xe901;" glyph-name="ios-calendar" data-tags="ios-calendar" horiz-adv-x="1065" d="M1024 622.080l-10.24 10.24v-655.36l10.24 10.24h-983.040l10.24-10.24v655.36l-10.24-10.24h983.040zM30.72 642.56v-675.84h1003.52v675.84h-1003.52zM163.84 529.92l20.48 20.48v-81.92l-20.48 20.48h81.92l-20.48-20.48v81.92l20.48-20.48h-81.92zM245.76 550.4v-81.92h-81.92v81.92h81.92zM163.84 366.080l20.48 20.48v-81.92l-20.48 20.48h81.92l-20.48-20.48v81.92l20.48-20.48h-81.92zM245.76 386.56v-81.92h-81.92v81.92h81.92zM327.68 529.92l20.48 20.48v-81.92l-20.48 20.48h81.92l-20.48-20.48v81.92l20.48-20.48h-81.92zM409.6 550.4v-81.92h-81.92v81.92h81.92zM327.68 366.080l20.48 20.48v-81.92l-20.48 20.48h81.92l-20.48-20.48v81.92l20.48-20.48h-81.92zM409.6 386.56v-81.92h-81.92v81.92h81.92zM491.52 529.92l20.48 20.48v-81.92l-20.48 20.48h81.92l-20.48-20.48v81.92l20.48-20.48h-81.92zM573.44 550.4v-81.92h-81.92v81.92h81.92zM491.52 366.080l20.48 20.48v-81.92l-20.48 20.48h81.92l-20.48-20.48v81.92l20.48-20.48h-81.92zM573.44 386.56v-81.92h-81.92v81.92h81.92zM655.36 529.92l20.48 20.48v-81.92l-20.48 20.48h81.92l-20.48-20.48v81.92l20.48-20.48h-81.92zM737.28 550.4v-81.92h-81.92v81.92h81.92zM655.36 366.080l20.48 20.48v-81.92l-20.48 20.48h81.92l-20.48-20.48v81.92l20.48-20.48h-81.92zM737.28 386.56v-81.92h-81.92v81.92h81.92zM819.2 529.92l20.48 20.48v-81.92l-20.48 20.48h81.92l-20.48-20.48v81.92l20.48-20.48h-81.92zM901.12 550.4v-81.92h-81.92v81.92h81.92zM819.2 366.080l20.48 20.48v-81.92l-20.48 20.48h81.92l-20.48-20.48v81.92l20.48-20.48h-81.92zM901.12 386.56v-81.92h-81.92v81.92h81.92zM163.84 202.24l20.48 20.48v-81.92l-20.48 20.48h81.92l-20.48-20.48v81.92l20.48-20.48h-81.92zM245.76 222.72v-81.92h-81.92v81.92h81.92zM327.68 202.24l20.48 20.48v-81.92l-20.48 20.48h81.92l-20.48-20.48v81.92l20.48-20.48h-81.92zM409.6 222.72v-81.92h-81.92v81.92h81.92zM491.52 202.24l20.48 20.48v-81.92l-20.48 20.48h81.92l-20.48-20.48v81.92l20.48-20.48h-81.92zM573.44 222.72v-81.92h-81.92v81.92h81.92zM655.36 202.24l20.48 20.48v-81.92l-20.48 20.48h81.92l-20.48-20.48v81.92l20.48-20.48h-81.92zM737.28 222.72v-81.92h-81.92v81.92h81.92zM819.2 202.24l20.48 20.48v-81.92l-20.48 20.48h81.92l-20.48-20.48v81.92l20.48-20.48h-81.92zM901.12 222.72v-81.92h-81.92v81.92h81.92zM778.24 888.32h-10.24v-133.12l10.24 10.24h-40.96l10.24-10.24v133.12h-430.080v-133.12l10.24 10.24h-40.96l10.24-10.24v133.12h-266.24v-225.28h1003.52v225.28h-256zM1013.76 878.080v-204.8l10.24 10.24h-983.040l10.24-10.24v204.8l-10.24-10.24h245.76l-10.24 10.24v-133.12h61.44v133.12l-10.24-10.24h409.6l-10.24 10.24v-133.12h61.44v133.12l-10.24-10.24h245.76l-10.24 10.24zM286.72 960h40.96v-81.92h-40.96v81.92zM737.28 960h40.96v-81.92h-40.96v81.92z" />
<glyph unicode="&#xe902;" glyph-name="person" data-tags="shape" d="M986.375 1.903c-0.262 13.956-0.735 27.916-1.471 40.972-0.907 16.080-2.154 29.669-3.812 40.066-6.241 37.793-62.923 75.089-204.293 127.058 0.843-0.31-117.745 39.633-127.563 47.306-10.569 8.26-10.741 9.733-10.741 76.732 0 21.119 2.832 29.988 10.887 40.616-0.785-1.035 8.61 10.861 11.62 15.167 5.154 7.372 9.609 15.306 13.814 25.068 7.848 18.222 14.437 42.124 19.926 74.202 1.015 6.002 2.016 10.855 3.036 14.815 1.863 7.232 3.412 10.688 6.506 15.534 10.694 16.745 15.395 28.184 24.28 67 5.233 22.762 4.292 35.769-1.153 51.11-0.936 2.601-1.359 3.781-1.716 4.848-1.477 4.399-1.938 7.335-1.565 11.202 0.25 2.589 0.25 2.589 0.502 5.163 0.069 0.703 2.213 22.337 2.952 29.989 1.309 13.551 2.61 27.626 4.121 44.749 7.833 91.387-78.086 196.962-223.642 196.962-145.659 0-231.627-105.814-223.396-197.224 1.521-17.141 2.83-31.268 4.146-44.909 0.74-7.674 2.883-29.381 2.968-30.243 0.23-2.36 0.23-2.36 0.459-4.731 0.373-3.868-0.089-6.804-1.565-11.202-0.358-1.066-0.781-2.247-1.717-4.848-5.445-15.342-6.386-28.348-1.151-51.119 8.865-38.611 13.548-49.986 24.24-66.752 3.111-4.878 4.668-8.366 6.542-15.679 1.021-3.984 2.023-8.866 3.035-14.882 5.493-32.104 12.082-56.007 19.93-74.228 4.205-9.763 8.661-17.696 13.814-25.068 3.010-4.306 12.405-16.203 11.62-15.167 8.054-10.628 10.887-19.496 10.887-40.616 0-67.165-0.174-68.656-10.741-76.915-9.821-7.676-128.801-47.576-127.545-47.117-141.416-51.765-198.42-89.293-204.316-127.097-1.727-10.283-3.037-23.912-3.987-40.067-0.764-12.996-1.255-26.891-1.527-40.781-0.163-8.332-0.218-14.822-0.218-18.555v-9.846h957.046v9.846c0 3.749-0.053 10.269-0.21 18.641zM976.738-6.892h-937.354l9.846-9.846c0 3.612 0.053 9.975 0.214 18.169 0.268 13.652 0.749 27.3 1.497 40.010 0.912 15.51 2.162 28.511 3.767 38.076 4.328 27.746 57.145 62.519 191.641 111.75-8.115-2.966 119.978 39.99 132.908 50.095 18.149 14.185 18.307 15.535 18.307 92.431 0 25.314-4.17 38.372-14.884 52.51 0.477-0.63-8.555 10.808-11.175 14.556-4.4 6.295-8.201 13.062-11.868 21.576-7.175 16.658-13.359 39.092-18.601 69.733-1.094 6.5-2.204 11.91-3.374 16.475-2.41 9.405-4.818 14.799-9.014 21.379-9.459 14.833-13.28 24.114-21.651 60.574-4.372 19.019-3.707 28.223 0.517 40.122 0.894 2.48 1.396 3.884 1.827 5.168 2.289 6.82 3.168 12.409 2.498 19.359-0.23 2.384-0.23 2.384-0.461 4.755-0.086 0.882-2.228 22.572-2.965 30.22-1.311 13.591-2.615 27.669-4.133 44.772-7.239 80.392 70.258 175.778 203.782 175.778 133.442 0 210.913-95.193 204.024-175.563-1.504-17.044-2.8-31.065-4.104-44.562-0.736-7.623-2.878-29.238-2.949-29.963-0.253-2.587-0.253-2.587-0.505-5.192-0.67-6.949 0.209-12.539 2.498-19.359 0.431-1.284 0.933-2.687 1.827-5.168 4.224-11.899 4.889-21.103 0.517-40.12-8.393-36.665-12.23-46.002-21.683-60.804-4.178-6.541-6.578-11.898-8.979-21.219-1.171-4.544-2.282-9.929-3.38-16.426-5.24-30.622-11.423-53.056-18.598-69.714-3.667-8.514-7.468-15.281-11.868-21.576-2.62-3.747-11.652-15.185-11.175-14.556-10.714-14.138-14.884-27.195-14.884-52.51 0-76.708 0.159-78.063 18.307-92.248 12.914-10.093 140.53-53.077 132.899-50.275 134.529-49.453 187.071-84.026 191.646-111.727 1.523-9.557 2.716-22.55 3.589-38.021 0.721-12.782 1.186-26.506 1.444-40.234 0.155-8.238 0.206-14.638 0.206-18.271l9.846 9.846z" />
<glyph unicode="&#xe903;" glyph-name="task" data-tags="task-icon" d="M994.462 448c0 266.456-216.005 482.462-482.462 482.462s-482.462-216.005-482.462-482.462c0-266.456 216.005-482.462 482.462-482.462s482.462 216.005 482.462 482.462zM49.231 448c0 255.58 207.189 462.769 462.769 462.769s462.769-207.189 462.769-462.769c0-255.58-207.189-462.769-462.769-462.769s-462.769 207.189-462.769 462.769zM434.241 265.981l7.050-7.229 326.956 335.329-14.099 13.747-319.907-328.1 14.099 0.001-161.301 165.391-14.098-13.749z" />
<glyph unicode="&#xe904;" glyph-name="dashboard-o" data-tags="thin-0482-gauge-dashboard-empty" d="M481.478 859.713c-240.132-13.098-440.453-209.465-462.236-453.431-8.678-112.808 17.169-221.817 74.088-313.763 23.165-37.064 64.862-60.519 107.203-60.519h622.933c42.34 0 84.038 23.455 107.179 60.48 48.448 79.277 74.155 170.928 74.155 265.92 0 288.126-240.218 518.735-523.322 501.313zM912.498 103.695c-19.213-30.739-54.098-50.362-89.032-50.362h-622.933c-34.934 0-69.819 19.623-89.088 50.453-54.489 88.021-79.267 192.52-70.943 300.729 20.835 233.34 212.661 421.38 442.212 433.901 270.802 16.664 500.752-204.088 500.752-480.016 0-91.072-24.627-178.874-70.968-254.705zM132.267 373.333v-21.333h38.4v21.333zM242.209 634.742l-15.085-15.085 29.867-29.867 15.085 15.085zM522.667 746.667h-21.333v-34.133h21.333zM801.699 620.258l-16.197 13.884-25.6-29.867 16.197-13.884zM887.467 352v21.333h-38.4v-21.333zM567.032 185.058c29.024 33.861 29.024 82.422 0 116.284-29.857 34.833-84.474 34.833-114.331 0-29.024-33.861-29.024-82.422 0-116.284 29.857-34.833 84.474-34.833 114.331 0zM468.899 287.458c21.343 24.9 60.593 24.9 81.936 0 22.176-25.872 22.176-62.644 0-88.516-21.343-24.9-60.593-24.9-81.936 0-22.176 25.872-22.176 62.644 0 88.516zM272.156 502.394l-15.246-14.922 196.267-200.533 15.246 14.922z" />
<glyph unicode="&#xe905;" glyph-name="more-icon-o" data-tags="more-icon" horiz-adv-x="4096" d="M1640.729 491.636c0-64.266-52.098-116.364-116.364-116.364s-116.364 52.098-116.364 116.364c0 64.266 52.098 116.364 116.364 116.364s116.364-52.098 116.364-116.364zM2164.364 491.636c0-64.266-52.098-116.364-116.364-116.364s-116.364 52.098-116.364 116.364c0 64.266 52.098 116.364 116.364 116.364s116.364-52.098 116.364-116.364zM2688.001 491.636c0-64.266-52.098-116.364-116.364-116.364s-116.364 52.098-116.364 116.364c0 64.266 52.098 116.364 116.364 116.364s116.364-52.098 116.364-116.364z" />
<glyph unicode="&#xe906;" glyph-name="dots-horizontal" data-tags="dots-horizontal" d="M682.667 448c0 47.128 38.205 85.333 85.333 85.333s85.333-38.205 85.333-85.333c0-47.128-38.205-85.333-85.333-85.333s-85.333 38.205-85.333 85.333zM426.667 448c0 47.128 38.205 85.333 85.333 85.333s85.333-38.205 85.333-85.333c0-47.128-38.205-85.333-85.333-85.333s-85.333 38.205-85.333 85.333zM170.667 448c0 47.128 38.205 85.333 85.333 85.333s85.333-38.205 85.333-85.333c0-47.128-38.205-85.333-85.333-85.333s-85.333 38.205-85.333 85.333z" />
<glyph unicode="&#xe907;" glyph-name="close" data-tags="add" d="M603.379 438.561l413.758 413.758-77.58 77.58-413.758-413.758-413.758 413.758-77.58-77.58 413.758-413.758-413.758-413.758 77.58-77.58 413.758 413.758 413.758-413.758 77.58 77.58-413.758 413.758z" />
<glyph unicode="&#xe908;" glyph-name="document-text-empty" data-tags="document-text (1)" horiz-adv-x="838" d="M782.179 689.328l-209.668 223.097c-6.354 6.828-13.794 11.972-23.164 16.709-10.421 5.241-21.808 7.594-34.188 7.594h-398.712c-44.059 0-79.875-36.404-79.875-81.212v-812.606c0-45.157 35.882-83.636 79.875-83.636h606.171c43.938 0 78.629 38.364 78.629 83.636v591.758c0 12.653-2.066 24.116-6.904 34.532-3.028 7.235-6.973 14.073-12.164 20.129zM754.701 634.667v-591.758c0-20.552-14.955-37.091-32.083-37.091h-606.171c-17.532 0-33.33 16.942-33.33 37.091v812.606c0 19.269 15.149 34.667 33.33 34.667h398.712c5.518 0 9.804-0.886 13.233-2.61 4.821-2.438 7.941-4.594 10.125-6.942l209.035-222.388c0.981-1.182 2.593-3.976 4.234-7.875 2.027-4.401 2.916-9.334 2.916-15.701zM536.935 666.667v160l-40.167-16.006 177.538-187.394 16.895 39.279h-149.86c-1.62 0-4.405 2.692-4.405 4.121zM691.2 616h54.107l-254.918 269.070v-218.403c0-27.499 23.974-50.667 50.951-50.667h149.86z" />
<glyph unicode="&#xe909;" glyph-name="checkbox-todo-done" data-tags="checkbox-todo-done" horiz-adv-x="922" d="M44.325-5.573v175.543h175.543v-175.543h-175.543zM241.81 213.855h-219.429c-12.156 0-21.943-9.787-21.943-21.943v-219.429c0-12.112 9.787-21.943 21.943-21.943h219.429c12.112 0 21.943 9.83 21.943 21.943v219.429c0 12.156-9.83 21.943-21.943 21.943v0zM44.325 345.556v175.543h175.543v-175.543h-175.543zM241.81 564.985h-219.429c-12.156 0-21.943-9.787-21.943-21.943v-219.429c0-12.112 9.787-21.943 21.943-21.943h219.429c12.112 0 21.943 9.83 21.943 21.943v219.429c0 12.156-9.83 21.943-21.943 21.943v0zM897.472 126.18h-523.6c-12.156 0-21.943-9.83-21.943-21.943s9.787-21.943 21.943-21.943h523.6c12.112 0 21.943 9.83 21.943 21.943s-9.83 21.943-21.943 21.943zM897.472 477.288h-523.6c-12.156 0-21.943-9.83-21.943-21.943s9.787-21.943 21.943-21.943h523.6c12.112 0 21.943 9.83 21.943 21.943s-9.83 21.943-21.943 21.943zM373.862 784.532h523.6c12.156 0 21.943 9.83 21.943 21.943s-9.787 21.943-21.943 21.943h-523.6c-12.112 0-21.943-9.83-21.943-21.943s9.83-21.943 21.943-21.943zM271.091 914.969l-175.411-207.184-57.227 61.572c-8.294 8.865-22.206 9.348-31.027 1.141-8.865-8.251-9.392-22.162-1.141-31.027l74.123-79.653c4.169-4.52 9.962-7.022 16.062-7.022h0.527c6.276 0.132 12.156 2.984 16.238 7.768l191.386 226.055c7.812 9.216 6.671 23.084-2.589 30.939-9.26 7.768-23.128 6.627-30.939-2.589z" />
<glyph unicode="&#xe90a;" glyph-name="log-out" data-tags="log-out" d="M765.401 292.839l51.719-51.719 206.88 206.88-206.88 206.88-51.721-51.721 118.59-118.587h-518.274v-73.143h518.274zM821.694 137.678c-82.885-82.887-193.081-128.535-310.297-128.535-117.227 0-227.442 45.648-310.336 128.537-82.896 82.889-127.918 193.097-127.918 310.32 0 117.214 45.022 227.417 127.92 310.311 82.896 82.894 193.109 128.546 310.334 128.546 117.209 0 227.408-45.653 310.297-128.544 5.776-5.778 11.351-11.705 16.761-17.742h93.099c-92.512 132.635-246.192 219.429-420.158 219.429-282.777 0-511.397-229.253-511.397-512 0-282.777 228.619-512 511.397-512 173.97 0 327.657 86.789 420.165 219.429h-93.097c-5.413-6.041-10.987-11.968-16.77-17.751v0z" />
<glyph unicode="&#xe90b;" glyph-name="desk-support-help" data-tags="desk-support-help" horiz-adv-x="1186" d="M689.525 614.175l1.433-53.504c0-17.736 9.090-32.705 23.664-39.078 4.693-2.075 9.634-3.063 14.722-3.063 10.325 0 20.947 4.298 29.939 12.697l82.899 82.948h143.962c56.122 0 100.042 42.734 100.042 97.226v146.333c0 56.419-44.858 102.265-100.042 102.265h-296.619c-54.591 0-97.374-44.908-97.374-102.216v-146.333c0-55.48 41.845-97.276 97.374-97.276v0zM641.554 857.735c0 29.642 21.095 52.812 47.971 52.812h296.619c27.913 0 50.639-23.664 50.639-52.812v-146.333c0-27.715-21.293-47.823-50.639-47.823h-154.188c-6.571 0-12.845-2.618-17.489-7.262l-74.105-74.204v56.765c0 13.635-11.066 24.702-24.702 24.702h-26.134c-28.209 0-47.971 19.663-47.971 47.823v146.333zM350.913 542.442c61.754 0 102.71 77.020 102.71 127.906 0 56.616-46.093 102.71-102.71 102.71s-102.71-46.093-102.71-102.71c0-50.935 40.956-127.906 102.71-127.906v0zM350.913 723.654c29.395 0 53.306-23.911 53.306-53.306 0-32.458-27.567-78.502-53.306-78.502s-53.306 46.044-53.306 78.502c0 29.395 23.911 53.306 53.306 53.306v0zM1135.589 21.333h-1086.877c-13.635 0-24.702-11.066-24.702-24.702s11.066-24.702 24.702-24.702h1086.877c13.635 0 24.702 11.066 24.702 24.702s-11.017 24.702-24.702 24.702v0zM256.898 69.699h115.703c13.635 0 24.702 11.066 24.702 24.702s-11.066 24.702-24.702 24.702h-115.703c-12.054 0-23.121 4.94-31.272 13.784-8.102 8.942-11.956 20.404-10.869 32.359l17.044 187.14c0 42.042 22.034 80.281 57.357 101.722 36.213-37.794 87.197-37.794 123.459 0 35.324-21.491 57.357-59.976 57.456-103.945l23.664-258.035c1.186-12.796 11.956-22.429 24.603-22.429 0.741 0 1.532 0.049 2.273 0.099 13.586 1.235 23.615 13.29 22.38 26.876l-23.565 255.762c0 68.029-40.758 129.091-103.797 155.473-10.721 4.496-23.22 0.939-29.84-8.744-22.034-31.915-47.625-31.915-69.659 0-6.669 9.683-19.169 13.24-29.84 8.744-63.039-26.431-103.797-87.444-103.698-153.25l-16.945-184.868c-2.371-25.591 6.225-51.182 23.565-70.202 17.291-19.020 41.993-29.889 67.683-29.889v0z" />
<glyph unicode="&#xe90c;" glyph-name="shape" data-tags="shape" d="M977.316 530.524l23.245 8.935-5.784 24.222c-12.16 50.923-32.288 99.364-59.519 143.717l-13.037 21.233-22.765-10.127c-11.327-5.039-23.622-7.628-36.040-7.628-23.338 0-45.708 9.069-62.546 25.904-26.126 26.126-33.047 65.389-18.256 98.616l10.131 22.759-21.225 13.043c-44.349 27.253-92.775 47.398-143.693 59.577l-24.251 5.8-8.925-23.283c-13.021-33.967-45.689-56.854-82.653-56.854-36.959 0-69.628 22.888-82.651 56.855l-8.926 23.281-24.25-5.8c-50.918-12.178-99.343-32.325-143.691-59.58l-21.225-13.044 10.132-22.759c14.791-33.222 7.869-72.484-18.262-98.618-16.831-16.831-39.205-25.903-62.543-25.903-12.417 0-24.706 2.589-36.046 7.632l-22.764 10.124-13.035-21.231c-27.235-44.361-47.364-92.8-59.519-143.716l-5.783-24.224 23.247-8.933c33.928-13.037 56.785-45.692 56.785-82.632 0-36.93-22.834-69.569-56.746-82.618l-23.245-8.945 5.797-24.223c12.187-50.921 32.334-99.342 59.589-143.688l13.025-21.193 22.74 10.085c11.305 5.014 23.568 7.589 35.952 7.589 23.338 0 45.709-9.070 62.545-25.905 26.087-26.087 33.030-65.272 18.32-98.469l-10.078-22.743 21.197-13.019c44.359-27.244 92.781-47.376 143.695-59.541l24.196-5.781 8.953 23.21c13.069 33.88 45.691 56.687 82.589 56.687 36.901 0 69.52-22.804 82.585-56.684l8.952-23.212 24.197 5.781c50.915 12.164 99.335 32.297 143.701 59.547l21.196 13.019-10.077 22.742c-14.709 33.195-7.766 72.378 18.323 98.465 16.83 16.835 39.202 25.907 62.537 25.907 12.386 0 24.642-2.575 35.954-7.591l22.74-10.085 13.025 21.194c27.255 44.346 47.402 92.767 59.589 143.688l5.797 24.222-23.244 8.945c-33.91 13.050-56.744 45.691-56.744 82.619-0.002 36.937 22.854 69.591 56.786 82.633zM956.843 312.18l-17.447 33.167c-10.782-45.053-28.607-87.893-52.729-127.141l24.234-14.894 11.532 26.002c-18.604 8.251-38.718 12.476-59.018 12.476-38.275 0-75.16-14.957-102.766-42.572-42.856-42.854-54.262-107.22-30.105-161.736l11.119 35.761c-39.267-24.118-82.104-41.929-127.147-52.69l33.149-17.431c-21.458 55.643-75.042 93.104-135.664 93.104-60.619 0-114.204-37.462-135.666-93.102l33.149 17.429c-45.044 10.762-87.883 28.573-127.143 52.686l11.119-35.762c24.158 54.518 12.753 118.885-30.106 161.744-27.616 27.613-64.495 42.566-102.77 42.566-20.295 0-40.417-4.226-59.015-12.474l11.532-26.002 24.234 14.894c-24.122 39.248-41.947 82.088-52.729 127.141l-17.448-33.167c55.695 21.431 93.204 75.046 93.204 135.712 0 60.685-37.543 114.323-93.269 135.736l17.465-33.157c10.753 45.044 28.562 87.9 52.666 127.161l-24.24 14.882-11.558-25.99c18.645-8.292 38.812-12.54 59.163-12.54 38.275 0 75.159 14.955 102.77 42.566 42.926 42.932 54.295 107.422 30.005 161.981l-11.092-35.803c39.249 24.121 82.091 41.945 127.138 52.719l-33.176 17.481c21.387-55.784 75.048-93.379 135.769-93.379 60.726 0 114.387 37.595 135.772 93.38l-33.176-17.483c45.047-10.774 87.891-28.598 127.141-52.717l-11.094 35.802c-24.289-54.563-12.921-119.057 30.003-161.98 27.618-27.613 64.497-42.564 102.77-42.564 20.351 0 40.526 4.248 59.163 12.539l-11.561 25.989-24.24-14.883c24.1-39.253 41.908-82.11 52.666-127.164l17.461 33.157c-55.725-21.419-93.267-75.054-93.264-135.736 0-60.661 37.507-114.276 93.2-135.71zM352.948 448.237c0 89 72.061 161.185 161.185 161.185s161.185-72.186 161.185-161.185c0-88.998-72.063-161.185-161.185-161.185-89.123 0-161.185 72.186-161.185 161.185zM732.207 448.237c0 120.397-97.511 218.074-218.074 218.074-120.565 0-218.074-97.677-218.074-218.074s97.51-218.074 218.074-218.074c120.563 0 218.074 97.679 218.074 218.074z" />
<glyph unicode="&#xe90d;" glyph-name="money-dollar-cash" data-tags="money-dollar-cash" horiz-adv-x="846" d="M842.577 149.967l-87.386 126.667c-6.325 9.226-18.895 11.482-28.001 5.117l-17.203-11.885c-2.417 24.939-4.915 75.944-4.109 179.566 1.45 188.47-154.587 279.643-219.492 309.376l0.282 138.351c0 5.358-2.135 10.475-5.882 14.262-3.787 3.787-8.904 5.882-14.262 5.882 0 0 0 0-0.040 0l-446.116-0.564c-11.12 0-20.144-9.025-20.144-20.144l0.282-726.364c0-5.358 2.135-10.475 5.922-14.262s8.904-5.882 14.222-5.882v0l444.182 0.604c7.856 0 14.504 4.633 17.808 11.241 8.138-9.71 17.687-19.983 26.953-30.136l-19.54-13.456c-9.146-6.285-11.442-18.855-5.157-28.001l87.346-126.708c3.062-4.351 7.695-7.413 12.933-8.38 1.209-0.201 2.458-0.322 3.666-0.322 4.069 0 8.058 1.209 11.442 3.586l237.099 163.532c4.351 3.022 7.413 7.655 8.38 12.933 1.048 5.157-0.121 10.596-3.183 14.987v0zM303.435 562.683c0.242-5.076 1.048-10.354 2.538-15.753h-35.535c9.71 18.815 18.573 18.815 22.521 18.815 3.707 0 7.091-1.209 10.475-3.062v0zM314.595 602.045c-6.889 2.578-14.061 3.989-21.635 3.989-39.926 0-57.975-35.776-66.315-59.103h-63.978c2.941 5.922 7.131 10.918 12.328 14.302 9.347 6.084 11.966 18.573 5.842 27.88-6.084 9.347-18.533 11.925-27.88 5.842-16.317-10.676-27.96-28.162-32.755-48.024h-5.761c-11.12 0-20.144-9.025-20.144-20.144s9.025-20.144 20.144-20.144h6.003c8.138-33.883 35.897-59.063 69.176-59.063 39.362 0 57.089 34.366 66.073 59.063h62.971c3.707-11.442 7.252-22.521 10.676-33.238 22.884-71.432 41.296-128.843 68.853-184.159-36.904-21.474-62.447-57.975-68.853-98.506l-169.091-0.201c-4.391 29.25-17.646 56.283-39.281 77.515-21.957 21.554-50.038 34.447-80.215 38.395l-0.161 455.906c29.25 3.827 56.525 16.679 78.12 38.395 20.87 20.95 33.842 47.863 37.912 75.863l168.004 0.242c8.904-62.689 58.58-112.566 121.47-121.793l-0.363-192.257-8.017 23.327c-14.141 42.706-54.188 54.309-86.459 43.592-14.544-4.794-27.719-14.625-36.663-27.678v0zM211.778 506.642c-8.098-15.793-15.39-18.775-22.159-18.775-11.281 0-20.708 7.776-26.308 18.775h48.467zM486.023 573.843c12.812-14.826 25.18-32.996 33.963-54.349 16.841-40.974 17.123-74.534 7.615-83.277-4.593-4.311-17.526-4.754-40.168 5.439l-1.692 4.875 0.282 127.312zM446.137 795.35c-41.457 8.138-73.446 40.208-81.302 81.584l81.464 0.121-0.161-81.705zM116.012 876.572c-3.707-17.445-12.57-34.044-25.865-47.42-13.9-13.98-31.103-23.206-49.595-26.711l-0.040 74.010 75.501 0.121zM40.793 266.159c19.58-3.586 37.63-12.731 52.013-26.873 13.859-13.577 23.045-30.458 26.993-48.79l-78.966-0.121-0.040 75.783zM444.727 190.9l-74.091-0.081c5.963 25.744 22.924 48.79 46.977 63.052 8.179-13.94 17.203-28.001 27.114-42.222v-20.749zM367.695 485.692c-4.915 15.35-10.193 31.707-15.672 48.588-0.040 0.161-0.081 0.322-0.161 0.443-2.256 6.889-4.391 13.577-6.768 20.749-8.622 26.107 15.914 35.051 18.734 35.978 4.472 1.491 27.114 7.534 35.655-18.21l52.577-152.654c1.692-4.956 5.278-9.065 9.911-11.402 41.094-20.87 72.399-21.675 92.986-2.578 29.37 27.155 20.467 84.042 2.296 128.198-15.108 36.703-41.376 70.948-71.15 94.396l0.161 84.767c64.301-32.996 180.412-113.453 179.284-264.213-0.967-123.847 2.296-179.284 7.494-205.351l-130.011-89.642c-105.153 113.936-131.059 192.7-175.336 330.931v0zM594.077 3.034l-64.502 93.51 203.901 140.607 64.542-93.47-203.941-140.648z" />
<glyph unicode="&#xe90e;" glyph-name="document-text" data-tags="document-text" horiz-adv-x="838" d="M782.179 689.328l-209.668 223.097c-6.354 6.828-13.794 11.972-23.164 16.709-10.421 5.241-21.808 7.594-34.188 7.594h-398.712c-44.059 0-79.875-36.404-79.875-81.212v-812.606c0-45.157 35.882-83.636 79.875-83.636h606.171c43.938 0 78.629 38.364 78.629 83.636v591.758c0 12.653-2.066 24.116-6.904 34.532-3.028 7.235-6.973 14.073-12.164 20.129zM754.701 634.667v-591.758c0-20.552-14.955-37.091-32.083-37.091h-606.171c-17.532 0-33.33 16.942-33.33 37.091v812.606c0 19.269 15.149 34.667 33.33 34.667h398.712c5.518 0 9.804-0.886 13.233-2.61 4.821-2.438 7.941-4.594 10.125-6.942l209.035-222.388c0.981-1.182 2.593-3.976 4.234-7.875 2.027-4.401 2.916-9.334 2.916-15.701zM536.935 666.667v160l-40.167-16.006 177.538-187.394 16.895 39.279h-149.86c-1.62 0-4.405 2.692-4.405 4.121zM691.2 616h54.107l-254.918 269.070v-218.403c0-27.499 23.974-50.667 50.951-50.667h149.86zM581.818 215.273h23.273v46.545h-418.909v-46.545h23.273zM581.818 308.364h23.273v46.545h-418.909v-46.545h23.273zM581.818 401.455h23.273v46.545h-418.909v-46.545h23.273zM581.818 494.545h23.273v46.545h-418.909v-46.545h23.273z" />
<glyph unicode="&#xe90f;" glyph-name="help" data-tags="help" d="M511.377-12.531c-254.507 0-461.568 207.061-461.568 461.568s207.061 461.568 461.568 461.568c254.507 0 461.525-207.061 461.525-461.568s-207.019-461.568-461.525-461.568zM511.377 953.271c-278.059 0-504.235-226.219-504.235-504.235s226.176-504.235 504.235-504.235c278.059 0 504.192 226.219 504.192 504.235s-226.133 504.235-504.192 504.235zM491.584 203.968c-11.776 0-21.333-9.557-21.333-21.333v-15.445c0-11.819 9.557-21.333 21.333-21.333s21.333 9.515 21.333 21.333v15.445c0 11.776-9.557 21.333-21.333 21.333zM495.104 748.198c-69.717 0-134.741-33.408-169.728-87.168-6.443-9.856-3.627-23.083 6.229-29.483 9.856-6.485 23.083-3.669 29.525 6.229 27.221 41.813 78.549 67.755 133.973 67.755 84.651 0 153.515-59.349 153.515-132.309 0-56.192-46.080-99.84-140.928-133.504-22.4-7.979-37.461-29.056-37.461-52.437v-93.739c0-11.776 9.557-21.333 21.333-21.333 11.819 0 21.333 9.557 21.333 21.333v93.739c0 5.376 3.669 10.325 9.045 12.245 113.963 40.405 169.344 97.237 169.344 173.696 0 96.512-87.979 174.976-196.181 174.976z" />
<glyph unicode="&#xe910;" glyph-name="briefcase" data-tags="briefcase" horiz-adv-x="1078" d="M953.522 794.17v41.457h-82.915v-41.457h-124.372v82.915c-1.296 47.158-35.239 82.915-83.433 82.915h-256.777c-48.194 0-74.364-35.498-74.364-82.915v-82.915h-124.372v41.457h-82.915v-41.457h-124.372v-829.15h1077.895v829.15h-124.372zM373.117 795.466v76.178c0 26.429 7.514 46.899 35.498 46.899h251.595c26.947 0 44.567-19.951 44.567-46.899v-77.474h-331.66v1.296zM1036.437 6.478h-994.98v580.405h994.98v-580.405zM1036.437 628.34h-994.98v124.372h82.915v-41.457h82.915v41.457h663.32v-41.457h82.915v41.457h82.915v-124.372z" />
<glyph unicode="&#xe911;" glyph-name="edit" data-tags="edit" d="M154.12 274.124v-30.17l508.644 508.644h-30.17l184.013-184.013v30.17l-508.644-508.644 30.17-30.17 523.729 523.729-214.183 214.183-538.814-538.814 199.098-199.098 30.17 30.17zM867.622 901.375c-32.443 32.446-86.225 30.2-120.184-3.759l-106.924-106.926 214.183-214.181 106.924 106.924c33.953 33.961 36.2 87.743 3.759 120.186l-97.758 97.756zM931.449 713.602l-91.837-91.837h30.17l-184.013 184.011v-30.17l91.839 91.841c17.833 17.833 44.651 18.953 59.844 3.759l97.758-97.756c15.19-15.191 14.070-42.014-3.761-59.848zM46.43 13.663l-9.908-36.125 308.694 84.675-224.019 224.048-74.767-272.598zM116.976 230.138l172.121-172.144 9.443 35.657-237.18-65.059 26.217-26.216 65.059 237.202-35.659-9.441z" />
<glyph unicode="&#xe912;" glyph-name="down-arrow" data-tags="open-icon" horiz-adv-x="1536" d="M751.824-1.479c-41.405-10.216-86.986 0.853-119.341 33.209l-569.106 569.106c-49.182 49.182-49.182 128.921 0 178.102s128.921 49.182 178.102 0l510.345-510.345 510.345 510.345c49.182 49.182 128.921 49.182 178.102 0s49.182-128.921 0-178.102l-569.106-569.106c-32.355-32.355-77.936-43.425-119.341-33.209z" />
<glyph unicode="&#xe913;" glyph-name="up-arrow" data-tags="open-icon-copy" horiz-adv-x="1843" d="M880.135 858.882c-40.221 9.923-84.496-0.829-115.924-32.257l-552.818-552.818c-47.774-47.774-47.774-125.23 0-173.004s125.23-47.774 173.004 0l495.738 495.738 495.738-495.738c47.774-47.774 125.23-47.774 173.004 0s47.774 125.23 0 173.004l-552.818 552.818c-31.428 31.428-75.706 42.183-115.924 32.257z" />
<glyph unicode="&#xe914;" glyph-name="user-add" data-tags="page-1-copy" horiz-adv-x="832" d="M374.814 859.326c102.931 0 186.633-103.072 186.633-229.768 0-64.316-22.111-126.064-60.681-169.442l2.731-2.647c-0.038 0-0.076-0.040-0.114-0.079l-2.958 2.765c-25.297-29.551-56.13-49.146-89.164-57.56-1.062-0.277-2.162-0.672-3.262-0.909-10.316-2.37-20.897-3.635-31.554-3.753-1.972 0-3.944 0.277-5.916 0.316-8.875 0.277-17.636 1.304-26.283 3.121-2.238 0.474-4.475 0.909-6.713 1.501-20.366 5.333-39.784 15.012-57.572 28.602-2.313 1.738-4.513 3.674-6.751 5.531-8.268 6.993-16.346 14.42-23.704 23.111l-2.996-2.805c-0.076 0.040-0.152 0.079-0.228 0.119l2.807 2.686c-38.609 43.338-60.719 105.126-60.719 169.442 0 126.696 83.665 229.768 186.444 229.768zM502.283 56.759h-281.183c-61.819 0-112.071 52.346-112.071 116.701v197.965c0 21.728 16.953 39.388 37.812 39.388h53.969c9.292 0 18.318-3.714 25.486-10.509 0.91-0.869 1.896-1.462 2.807-2.331 6.865-6.321 13.995-12.089 21.314-17.462 2.313-1.699 4.627-3.358 6.94-4.938 8.078-5.452 16.308-10.469 24.804-14.736 0.531-0.277 1.024-0.632 1.555-0.869 9.026-4.464 18.356-8.020 27.838-11.101 2.276-0.751 4.589-1.422 6.903-2.054 8.23-2.41 16.612-4.267 25.069-5.61 1.403-0.198 2.807-0.553 4.248-0.711 8.913-1.225 17.939-2.015 27.041-2.015 1.289 0 2.503 0.198 3.793 0.237 0.986 0 2.010 0.158 2.996 0.158 9.14 0.316 18.204 1.304 27.117 2.805 2.465 0.395 4.892 0.79 7.32 1.304 6.713 1.383 13.274 3.16 19.797 5.215 14.564 4.306 29.089 9.56 43.387 16.948 17.598 9.126 31.365 22.242 43.994 34.923 6.903 6.914 16.043 10.746 25.752 10.746h54.007c20.859 0 37.812-17.659 37.812-39.388v-16.395c0-16.356 12.743-29.63 28.444-29.63s28.444 13.274 28.444 29.63v16.395c0 54.4-42.477 98.647-94.701 98.647h-25.031c26.169 46.775 40.391 101.57 40.391 159.486 0 159.368-109.227 289.027-243.522 289.027-134.182 0-243.333-129.659-243.333-289.027 0-57.916 14.222-112.711 40.429-159.486h-25.069c-52.224 0-94.701-44.247-94.701-98.647v-197.965c0-97.027 75.814-175.96 168.96-175.96h281.183c15.701 0 28.444 13.274 28.444 29.63s-12.743 29.63-28.444 29.63zM775.020 163.453h-80.706v84.030c0 16.395-12.743 29.63-28.444 29.63s-28.444-13.235-28.444-29.63v-84.030h-80.668c-15.701 0-28.444-13.274-28.444-29.63s12.743-29.63 28.444-29.63h80.668v-84.030c0-16.395 12.743-29.63 28.444-29.63s28.444 13.235 28.444 29.63v84.030h80.706c15.701 0 28.444 13.274 28.444 29.63s-12.743 29.63-28.444 29.63z" />
<glyph unicode="&#xe915;" glyph-name="open-eye" data-tags="eye-visibility-show-visible" horiz-adv-x="1365" d="M685.284 734.208c-153.884 0-279.097-128.626-279.097-286.777s125.212-286.834 279.097-286.834c153.884 0 279.097 128.683 279.097 286.834s-125.212 286.777-279.097 286.777v0zM685.284 217.543c-122.539 0-222.208 103.14-222.208 229.945s99.669 229.888 222.208 229.888c122.539 0 222.208-103.083 222.208-229.888s-99.669-229.945-222.208-229.945v0zM685.284 582.144c-72.533 0-131.527-60.416-131.527-134.713s58.994-134.656 131.527-134.656c72.476 0 131.527 60.416 131.527 134.656s-59.051 134.713-131.527 134.713v0zM685.284 369.664c-41.188 0-74.638 34.873-74.638 77.767s33.451 77.824 74.638 77.824c41.131 0 74.638-34.93 74.638-77.824s-33.508-77.767-74.638-77.767v0zM1340.018 460.060c-135.282 273.351-386.105 443.108-654.734 443.108-268.572 0-519.452-169.756-654.734-443.108-3.925-7.964-3.925-17.294 0-25.202 135.225-273.351 386.105-443.108 654.734-443.108s519.509 169.756 654.734 443.108c3.925 7.908 3.925 17.294 0 25.202v0zM685.284 48.64c-242.745 0-470.471 152.462-597.333 398.848 126.919 246.386 354.645 398.848 597.333 398.848 242.745 0 470.471-152.462 597.333-398.848-126.919-246.443-354.645-398.848-597.333-398.848v0z" />
<glyph unicode="&#xe916;" glyph-name="trash" data-tags="delete" horiz-adv-x="870" d="M230.401-32h409.601c66.918 0 121.598 54.557 121.598 121.37v608.23h-652.8v-608.23c0-66.814 54.68-121.37 121.601-121.37zM147.2 678.4l-19.2-19.2h614.4l-19.2 19.2v-589.030c0-45.586-37.468-82.97-83.198-82.97h-409.601c-45.732 0-83.201 37.384-83.201 82.97v589.030zM627.2 851.2l14.723-6.876-70.040 83.676h-273.364l-70.042-83.676 14.723 6.876h-211.2v-115.2h806.4v115.2h-211.2zM800 832v-76.8l19.2 19.2h-768l19.2-19.2v76.8l-19.2-19.2h200.967l70.042 83.676-14.723-6.876h255.43l-14.723 6.876 70.040-83.676h200.967l-19.2 19.2z" />
<glyph unicode="&#xe917;" glyph-name="search" data-tags="search-icon" d="M609.969 721.475c-102.588 102.588-268.91 102.588-371.426 0-102.588-102.588-102.588-268.91 0-371.499 102.515-102.515 268.837-102.515 371.426 0 102.515 102.588 102.515 268.91 0 371.499zM994.42-34.475c-39.44-39.44-103.393-39.44-142.834 0l-208.25 208.323c-163.249-98.93-378.158-79.1-519.089 61.904-165.663 165.663-165.663 434.281 0 599.945 165.663 165.737 434.281 165.737 600.018 0 140.931-140.931 160.761-355.913 61.904-519.015l208.25-208.323c39.44-39.367 39.44-103.393 0-142.834z" />
<glyph unicode="&#xe918;" glyph-name="hamburger" data-tags="move-icon" horiz-adv-x="1170" d="M73.143 960h1024c40.396 0 73.143-32.747 73.143-73.143s-32.747-73.143-73.143-73.143h-1024c-40.396 0-73.143 32.747-73.143 73.143s32.747 73.143 73.143 73.143zM73.143 521.143h1024c40.396 0 73.143-32.747 73.143-73.143s-32.747-73.143-73.143-73.143h-1024c-40.396 0-73.143 32.747-73.143 73.143s32.747 73.143 73.143 73.143zM73.143 82.286h1024c40.396 0 73.143-32.747 73.143-73.143s-32.747-73.143-73.143-73.143h-1024c-40.396 0-73.143 32.747-73.143 73.143s32.747 73.143 73.143 73.143z" />
<glyph unicode="&#xe919;" glyph-name="ic-email" data-tags="ic-email" horiz-adv-x="1152" d="M1002.667 906.667h-853.333c-76.288 0-138.133-62.274-138.133-138.667l-0.533-639.973c0-76.366 62.327-138.693 138.667-138.693h853.333c76.34 0 138.667 62.327 138.667 138.667v640c0 76.34-62.327 138.667-138.667 138.667zM1002.667 842.667c40.994 0 74.667-33.673 74.667-74.667v-640c0-40.994-33.673-74.667-74.667-74.667h-853.333c-40.994 0-74.667 33.673-74.667 74.667l0.533 639.973c0 41.171 33.291 74.693 74.133 74.693h853.333zM1002.667 661.333l-426.667-266.667-426.667 266.667v106.667l426.667-266.667 426.667 266.667z" />
<glyph unicode="&#xe91a;" glyph-name="cancel" data-tags="cancel" d="M512-64c282.77 0 512 229.23 512 512s-229.23 512-512 512c-282.77 0-512-229.23-512-512s229.23-512 512-512zM300.011 603.279l47.392 47.392 168.459-168.459 170.102 170.102 49.752-49.752-170.102-170.102 171.078-171.078-47.392-47.392-171.078 171.078-171.795-171.795-49.752 49.752 171.795 171.795-168.459 168.459z" />
<glyph unicode="&#xe91b;" glyph-name="calendar-blank" data-tags="calendar-blank" d="M810.667 149.333h-597.333v469.333h597.333zM682.667 917.333v-85.333h-341.333v85.333h-85.333v-85.333h-42.667c-47.36 0-85.333-37.973-85.333-85.333v-597.333c0-47.128 38.205-85.333 85.333-85.333h597.333c47.128 0 85.333 38.205 85.333 85.333v597.333c0 47.36-38.4 85.333-85.333 85.333h-42.667v85.333z" />
<glyph unicode="&#xe91c;" glyph-name="ic-export" data-tags="ic-export" d="M819.2 908.8v51.2h-592.095c-125.009 0-227.105-101.747-227.105-227.259v-569.482c0-125.33 101.678-227.259 227.105-227.259h592.095v51.2h-592.141c-94.294 0-170.734 76.202-170.734 171.186v579.228c0 94.543 76.333 171.186 170.734 171.186h592.141zM888.635 437.75h-632.635v51.2h637.073l-230.046 230.046 36.204 36.204 289.631-289.631-289.631-289.631-36.204 36.204 225.608 225.608z" />
<glyph unicode="&#xe91d;" glyph-name="archive" data-tags="noun-14744-cc" horiz-adv-x="1229" d="M1219.895 516.144l-244.082 432.904h-716.219l-244.095-432.904h-2.431v-555.185h1209.258v555.185h-2.431zM284.249 905.937h666.921l219.876-389.807h-139.766v-0.174c-66.937-1.059-120.938-56.596-120.938-124.56v-200.098c0-45.269-36.111-81.771-80.493-81.771h-424.293c-44.369 0-80.506 36.502-80.506 81.771v153.703h-0.066v46.408c0 68.714-55.204 124.734-123.157 124.734h-137.454l219.876 389.793zM1179.846 3.868h-1124.273v469.151h146.267c44.501 0 80.665-36.676 80.665-81.61v-198.154h0.132v-1.944c0-69.050 55.204-125.056 122.933-125.056h424.28c67.729 0 122.933 56.006 122.933 125.056v142.107h-0.106v57.99c0 44.934 36.124 81.61 80.744 81.61h146.425v-469.151z" />
<glyph unicode="&#xe91e;" glyph-name="letter" data-tags="letter" horiz-adv-x="1097" d="M516.367 960l-516.367-387.227 0.065-580.84h1032.605v580.84l-516.303 387.227zM516.367 798.655l301.133-225.882-301.133-225.882-301.198 225.882 301.198 225.882z" />
<glyph unicode="&#xe91f;" glyph-name="confirm" data-tags="confirm" d="M512-64c-282.77 0-512 229.23-512 512s229.23 512 512 512c282.77 0 512-229.23 512-512s-229.23-512-512-512zM367.393 229.662l30.155-30.155 428.823 428.823-60.311 60.311-368.512-369.474-142.675 143.637-60.311-60.311 172.83-172.83z" />
<glyph unicode="&#xe920;" glyph-name="folder" data-tags="folder" horiz-adv-x="1081" d="M146.334 933.333c-70.551 0-128-57.508-128-128v-867.556h1052.444v881.778h-506.111l-43.889 55.889 1.001-1.445c-23.328 38.857-65.483 59.333-109.778 59.333l-265.668 0.001zM146.334 904.889h265.667c35.69 0 67.473-15.805 85.333-45.555l0.569-0.779 52.889-67.445h491.556v-142.222h-995.556v156.444c0 55.119 44.381 99.556 99.556 99.556l-0.014 0.002zM46.778 620.444h995.556v-654.222h-995.556v654.222z" />
<glyph unicode="&#xe921;" glyph-name="phone" data-tags="phone" d="M706.472 319.869l-134.856-67.139c-51.556 31.655-99.55 68.875-142.781 112.105s-80.451 91.225-112.105 142.781l67.139 134.856-62.419 317.528-321.312-0.846-0.134-43.854c-0.668-258.67 99.639-507.413 285.74-693.513 186.145-186.145 434.887-286.452 693.557-285.784l43.854 0.134 0.846 321.268-317.528 62.464z" />
<glyph unicode="&#xe922;" glyph-name="gift" data-tags="gift" d="M938.667 448v-341.333c0-47.128-38.205-85.333-85.333-85.333h-682.667c-47.128 0-85.333 38.205-85.333 85.333v341.333c-23.564 0-42.667 19.103-42.667 42.667v128c0 47.128 38.205 85.333 85.333 85.333h135.253c-4.693 13.227-7.253 27.733-7.253 42.667 0 70.692 57.308 128 128 128 42.667 0 80.213-21.333 103.68-52.907v0.427l24.32-32.853 24.32 32.853v-0.427c23.467 31.573 61.013 52.907 103.68 52.907 70.692 0 128-57.308 128-128 0-14.933-2.56-29.44-7.253-42.667h135.253c47.128 0 85.333-38.205 85.333-85.333v-128c0-23.564-19.103-42.667-42.667-42.667zM170.667 106.667h298.667v341.333h-298.667v-341.333zM853.333 106.667v341.333h-298.667v-341.333h298.667zM384 789.333c-23.564 0-42.667-19.103-42.667-42.667s19.103-42.667 42.667-42.667c23.564 0 42.667 19.103 42.667 42.667s-19.103 42.667-42.667 42.667zM640 789.333c-23.564 0-42.667-19.103-42.667-42.667s19.103-42.667 42.667-42.667c23.564 0 42.667 19.103 42.667 42.667s-19.103 42.667-42.667 42.667zM128 618.667v-85.333h341.333v85.333h-341.333zM554.667 618.667v-85.333h341.333v85.333h-341.333z" />
<glyph unicode="&#xe923;" glyph-name="checkbox-marked-circle" data-tags="checkbox-marked-circle" d="M426.667 234.667l-213.333 213.333 60.16 60.587 153.173-153.173 323.84 323.84 60.16-60.587zM512 874.667c-235.641 0-426.667-191.025-426.667-426.667s191.025-426.667 426.667-426.667c235.641 0 426.667 191.025 426.667 426.667s-191.025 426.667-426.667 426.667z" />
<glyph unicode="&#xe924;" glyph-name="account" data-tags="account" d="M512 789.333c94.257 0 170.667-76.41 170.667-170.667s-76.41-170.667-170.667-170.667c-94.257 0-170.667 76.41-170.667 170.667s76.41 170.667 170.667 170.667zM512 362.667c188.587 0 341.333-76.373 341.333-170.667v-85.333h-682.667v85.333c0 94.293 152.747 170.667 341.333 170.667z" />
<glyph unicode="&#xe925;" glyph-name="file-account" data-tags="file-account" d="M554.667 576h234.667l-234.667 234.667v-234.667zM256 874.667h341.333l256-256v-512c0-47.128-38.205-85.333-85.333-85.333h-512c-47.36 0-85.333 38.4-85.333 85.333v682.667c0 47.36 37.973 85.333 85.333 85.333zM597.333 106.667v42.667c0 56.747-113.92 85.333-170.667 85.333s-170.667-28.587-170.667-85.333v-42.667h341.333zM426.667 448c-47.128 0-85.333-38.205-85.333-85.333s38.205-85.333 85.333-85.333c47.128 0 85.333 38.205 85.333 85.333s-38.205 85.333-85.333 85.333z" />
<glyph unicode="&#xe926;" glyph-name="merge" data-tags="merge" horiz-adv-x="2560" d="M893.074 64.219c0-15.286-4.262-36.767-17.202-58.505-21.606-36.298-60.511-58.085-118.113-58.085h-585.143c-57.602 0-96.507 21.787-118.113 58.085-12.939 21.738-17.202 43.219-17.202 58.505 0 230.166 191.679 416.549 427.886 416.549s427.886-186.383 427.886-416.549zM856.503 64.219c0 209.735-175.080 379.977-391.314 379.977s-391.314-170.242-391.314-379.977c0-9.29 3.052-24.673 12.056-39.799 14.966-25.142 41.889-40.219 86.687-40.219h585.143c44.798 0 71.722 15.077 86.687 40.219 9.003 15.126 12.056 30.509 12.056 39.799zM465.189 550.181c103.142 0 186.514 81.068 186.514 180.809 0 99.757-83.388 180.882-186.514 180.882-103.079 0-186.514-81.151-186.514-180.882 0-99.716 83.419-180.809 186.514-180.809zM465.189 513.609c-123.066 0-223.086 97.232-223.086 217.381 0 120.16 100.032 217.454 223.086 217.454 123.102 0 223.086-97.27 223.086-217.454 0-120.172-99.971-217.381-223.086-217.381zM2502.217 64.219c0-15.286-4.262-36.767-17.202-58.505-21.606-36.298-60.511-58.085-118.113-58.085h-585.143c-57.602 0-96.507 21.787-118.113 58.085-12.939 21.738-17.202 43.219-17.202 58.505 0 230.166 191.679 416.549 427.886 416.549s427.886-186.383 427.886-416.549zM2465.646 64.219c0 209.735-175.080 379.977-391.314 379.977s-391.314-170.242-391.314-379.977c0-9.29 3.052-24.673 12.056-39.799 14.966-25.142 41.889-40.219 86.687-40.219h585.143c44.798 0 71.722 15.077 86.687 40.219 9.003 15.126 12.056 30.509 12.056 39.799zM2074.331 550.181c103.142 0 186.514 81.068 186.514 180.809 0 99.757-83.388 180.882-186.514 180.882-103.079 0-186.514-81.151-186.514-180.882 0-99.716 83.419-180.809 186.514-180.809zM2074.331 513.609c-123.066 0-223.086 97.232-223.086 217.381 0 120.16 100.032 217.454 223.086 217.454 123.102 0 223.086-97.27 223.086-217.454 0-120.172-99.971-217.381-223.086-217.381zM759.881 435.127h385.829l-151.698-137.362c-5.321-4.647-8.393-11.354-8.434-18.419s2.949-13.808 8.215-18.518c11.429-10.17 28.616-10.326 40.229-0.366l200.923 180.59c5.299 4.552 8.365 11.177 8.407 18.163s-2.944 13.647-8.188 18.263l-199.095 182.272c-5.542 4.979-12.738 7.716-20.187 7.68-7.371 0.067-14.508-2.589-20.041-7.461-5.315-4.387-8.411-10.904-8.453-17.796s2.973-13.446 8.234-17.898l151.259-137.509h-386.926c-15.726 0-28.453-11.63-28.453-25.893 0-14.19 12.727-25.746 28.453-25.746zM1770.057 435.127h-385.902l151.625-137.362c5.346-4.648 8.434-11.372 8.476-18.456s-2.966-13.844-8.257-18.555c-11.429-10.17-28.616-10.326-40.229-0.366l-200.85 180.59c-5.308 4.542-8.388 11.16-8.444 18.146s2.917 13.653 8.151 18.279l199.095 182.272c5.568 5.039 12.824 7.806 20.334 7.753 7.314 0 14.482-2.487 20.041-7.461 11.191-10.021 11.264-25.6 0.219-35.694l-151.259-137.509h386.999c15.726 0 28.526-11.63 28.526-25.893 0-14.19-12.8-25.746-28.526-25.746z" />
<glyph unicode="&#xe927;" glyph-name="filter-outline" data-tags="filter-outline" d="M128 874.667h768v-85.333h-3.413l-252.587-252.587v-554.24l-256 256v298.667l-252.16 252.16h-3.84v85.333zM469.333 273.92l85.333-85.333v387.413h3.84l213.333 213.333h-519.253l213.333-213.333h3.413v-302.080z" />
<glyph unicode="&#xe928;" glyph-name="settings" data-tags="icon-settings" d="M971.045 333.458l-55.052 22.821c-34.718 14.385-60.66 53.979-60.66 92.891 0 36.815 26.478 76.41 60.66 90.551l55.101 22.821c2.435 1.064 4.106 3.451 4.106 6.229 0 0.919-0.183 1.794-0.514 2.593l-48.209 116.642c-0.914 2.482-3.258 4.22-6.009 4.22-0.95 0-1.852-0.207-2.662-0.579l-54.574-22.609c-35.109-14.531-81.335-4.876-108.983 22.821-26.088 26.088-35.401 72.997-21.211 107.325l22.577 54.565c0.307 0.74 0.485 1.599 0.485 2.5 0 2.774-1.691 5.153-4.099 6.163l-116.585 48.242c-0.794 0.374-1.726 0.592-2.708 0.592-2.761 0-5.119-1.725-6.055-4.156l-22.787-55.097c-14.385-34.767-54.077-60.66-93.135-60.66-36.815 0-76.556 26.478-90.697 60.66l-22.821 55.052c-1.036 2.429-3.404 4.101-6.162 4.101-0.907 0-1.773-0.181-2.562-0.509l-116.399-48.16c-2.463-0.941-4.18-3.284-4.18-6.028 0-0.961 0.211-1.873 0.588-2.692l22.707-54.866c14.385-34.718 4.584-81.042-23.016-108.642-26.039-26.088-72.802-35.499-106.935-21.406l-54.906 22.723c-0.751 0.315-1.624 0.498-2.54 0.498-2.806 0-5.211-1.718-6.221-4.159l-48.291-116.586c-1.463-3.608 0-7.266 3.608-8.777l55.052-22.772c34.718-14.385 60.66-53.979 60.66-92.891 0-36.815-26.478-76.41-60.66-90.551l-55.101-22.821c-2.435-1.064-4.106-3.451-4.106-6.229 0-0.919 0.183-1.794 0.514-2.593l48.258-116.74c1.463-3.608 5.12-5.12 8.631-3.657l54.955 22.772c34.718 14.385 81.091 4.584 108.69-22.967 26.039-26.088 35.45-72.85 21.309-106.984l-22.723-54.906c-0.307-0.74-0.485-1.599-0.485-2.5 0-2.774 1.691-5.153 4.099-6.163l116.585-48.291c3.608-1.463 7.314 0.098 8.777 3.657l22.772 55.052c14.385 34.767 54.077 60.66 93.135 60.66 36.864 0 76.556-26.478 90.697-60.66l22.821-55.052c1.365-3.413 5.315-5.022 8.68-3.608l116.395 48.372c2.495 0.924 4.241 3.283 4.241 6.050 0 0.971-0.215 1.892-0.6 2.718l-22.755 54.866c-14.385 34.67-4.584 81.042 23.016 108.642 26.088 26.039 72.802 35.45 106.984 21.309l54.955-22.772c0.733-0.298 1.583-0.471 2.473-0.471 2.777 0 5.162 1.683 6.189 4.084l48.34 116.585c1.463 3.608 0 7.266-3.608 8.777zM971.386 189.513c-11.703-28.282-44.178-41.74-72.411-30.037l-54.955 22.772c-15.896 6.583-41.691 1.414-53.833-10.728-13.8-13.848-19.163-39.253-12.434-55.491l22.772-54.955c11.752-28.282-1.463-60.514-29.989-72.411l-116.395-48.323c-6.281-2.68-13.587-4.237-21.258-4.237-22.947 0-42.637 13.94-51.065 33.814l-22.957 55.464c-6.583 15.945-28.477 30.525-45.69 30.525-19.505 0-41.253-14.238-48.030-30.574l-22.821-55.052c-11.703-28.379-43.886-41.838-72.46-29.989l-116.541 48.226c-20.263 8.553-34.226 28.257-34.226 51.222 0 7.626 1.54 14.892 4.325 21.505l22.587 54.541c6.583 15.896 1.414 41.691-10.728 53.833-13.848 13.8-39.253 19.163-55.589 12.434l-54.906-22.772c-6.28-2.697-13.59-4.265-21.265-4.265-22.979 0-42.675 14.053-50.963 34.034l-48.311 117.004c-11.703 28.282 1.755 60.757 30.037 72.46l55.101 22.772c15.945 6.632 30.525 28.477 30.525 45.544 0 19.358-14.19 41.106-30.574 47.835l-55.052 22.821c-20.282 8.467-34.277 28.139-34.277 51.080 0 7.701 1.577 15.033 4.425 21.691l48.186 116.181c11.703 28.282 44.13 41.74 72.411 30.086l54.906-22.674c15.896-6.583 41.691-1.365 53.833 10.776 13.8 13.8 19.163 39.253 12.434 55.491l-22.723 54.906c-11.752 28.379 1.463 60.562 30.037 72.411l116.395 48.274c28.282 11.703 60.709-1.755 72.411-30.037l22.821-55.003c6.583-15.994 28.526-30.574 45.69-30.574 19.505 0 41.301 14.19 48.030 30.574l22.869 55.003c11.703 28.379 43.886 41.886 72.46 30.037l116.541-48.274c28.282-11.703 41.74-44.081 30.037-72.363l-22.577-54.516c-6.68-16.091-1.512-42.082 10.63-54.223 13.848-13.848 39.156-19.163 55.881-12.239l54.565 22.626c6.292 2.708 13.616 4.282 21.307 4.282 22.985 0 42.686-14.061 50.97-34.051l48.262-117.004c11.703-28.282-1.755-60.757-30.037-72.46l-55.052-22.821c-15.994-6.583-30.574-28.428-30.574-45.495 0-19.358 14.238-41.106 30.574-47.884l55.052-22.772c28.379-11.703 41.838-43.886 29.989-72.46l-48.323-116.541zM512.049 716.19c148.118 0 268.19-120.073 268.19-268.19s-120.073-268.19-268.19-268.19c-148.118 0-268.19 120.073-268.19 268.19s120.073 268.19 268.19 268.19zM512.049 667.429c-121.187 0-219.429-98.242-219.429-219.429s98.242-219.429 219.429-219.429c121.187 0 219.429 98.242 219.429 219.429s-98.242 219.429-219.429 219.429zM512.049 350.476c53.861 0 97.524 43.663 97.524 97.524s-43.663 97.524-97.524 97.524c-53.861 0-97.524-43.663-97.524-97.524s43.663-97.524 97.524-97.524zM512.049 301.714c-80.791 0-146.286 65.494-146.286 146.286s65.494 146.286 146.286 146.286c80.791 0 146.286-65.494 146.286-146.286s-65.494-146.286-146.286-146.286z" />
<glyph unicode="&#xe929;" glyph-name="reports" data-tags="icon-reports" d="M128 960v-896h42.65v853.35h810.701v-899.072c0-21.886-17.742-39.629-39.629-39.629h-859.443c-21.886 0-39.629 17.742-39.629 39.629v771.072h42.701v42.65h-85.35v-813.722c0-45.363 36.915-82.278 82.278-82.278h859.443c45.363 0 82.278 36.915 82.278 82.278v941.722h-896zM358.4 806.4h341.35v-42.65h-341.35zM204.8 601.6h640v-42.65h-640zM256 396.8h512v-42.65h-512zM204.8 192h640v-42.65h-640z" />
<glyph unicode="&#xe92a;" glyph-name="export" data-tags="export" horiz-adv-x="1344" d="M798.080 422.912h408.576l-160.576-166.144c-11.808-12.521-11.892-32.050-0.192-44.672 5.486-5.897 13.148-9.29 21.202-9.387s15.796 3.111 21.422 8.875l212.672 218.496c11.856 12.293 11.969 31.73 0.256 44.16l-210.816 220.48c-5.54 5.83-13.215 9.152-21.258 9.201s-15.757-3.181-21.366-8.945c-11.83-11.905-11.943-31.092-0.256-43.136l160.128-166.464h-409.728c-16.942-0.315-30.429-14.289-30.144-31.232 0-17.28 13.44-31.232 30.080-31.232zM512 912c256.26 0 464-207.74 464-464s-207.74-464-464-464c-256.26 0-464 207.74-464 464s207.74 464 464 464zM512 880c-238.587 0-432-193.413-432-432s193.413-432 432-432c238.587 0 432 193.413 432 432s-193.413 432-432 432zM512 653.44c-59.912 0-108.48-48.568-108.48-108.48 0-38.756 20.676-74.568 54.24-93.946s74.916-19.378 108.48 0c33.564 19.378 54.24 55.19 54.24 93.946 0 59.912-48.568 108.48-108.48 108.48zM582.24 423.301c-43.465-25.094-97.015-25.094-140.48 0s-70.24 71.471-70.24 121.659c0 77.585 62.895 140.48 140.48 140.48s140.48-62.895 140.48-140.48c0-50.189-26.775-96.565-70.24-121.659zM512.064 361.152h-5.469c-99.255-2.325-184.81-67.782-215.051-161.362 125.422-112.398 315.678-112.347 441.039 0.121-30.785 95.183-118.966 161.241-220.52 161.241zM766.196 199.241l2.583-9.264-6.969-6.628c-139.895-133.047-359.52-133.106-499.487-0.134l-6.975 6.627 2.583 9.268c31.75 113.94 134.78 194.105 254.133 194.105h16c112.455-7.337 207.82-85.263 238.132-193.975z" />
<glyph unicode="&#xe92b;" glyph-name="photo_camera" data-tags="ic_photo_camera_black_24px" d="M648.533 448c0-75.405-61.128-136.533-136.533-136.533s-136.533 61.128-136.533 136.533c0 75.405 61.128 136.533 136.533 136.533s136.533-61.128 136.533-136.533zM384 874.667l-78.080-85.333h-135.253c-46.933 0-85.333-38.4-85.333-85.333v-512c0-46.933 38.4-85.333 85.333-85.333h682.667c46.933 0 85.333 38.4 85.333 85.333v512c0 46.933-38.4 85.333-85.333 85.333h-135.253l-78.080 85.333h-256zM512 234.667c-117.76 0-213.333 95.573-213.333 213.333s95.573 213.333 213.333 213.333 213.333-95.573 213.333-213.333-95.573-213.333-213.333-213.333z" />
<glyph unicode="&#xe92c;" glyph-name="filter" data-tags="filter" horiz-adv-x="1170" d="M450.758 587.25l6.385-13.883v-454.29c0-11.992 10.519-26.477 21.786-29.904l188.477-57.413c26.292-7.989 45.738 6.708 45.738 35.094v506.514l6.385 13.883 328.186 281.321h-925.143l328.186-281.321zM23.714 905.143h1122.857l-396.857-340.186v-498.104c0-52.768-42.993-85.262-92.954-70.082l-188.482 57.415c-26.8 8.152-47.707 36.942-47.707 64.891v445.88l-396.857 340.186z" />
<glyph unicode="&#xe92d;" glyph-name="right-arrow" data-tags="open-icon-copy-5" horiz-adv-x="559" d="M372.364 448l-347.229-360.262c-15.534-16.326-25.090-38.465-25.090-62.836s9.556-46.51 25.126-62.874c15.21-15.996 36.7-25.969 60.52-25.969s45.31 9.973 60.522 25.972l387.291 401.723c15.532 16.312 25.088 38.439 25.088 62.797 0 7.613-0.934 15.008-2.692 22.077 1.747 5.792 2.673 13.16 2.673 20.745 0 24.396-9.586 46.553-25.196 62.911l-387.131 401.652c-15.246 16.034-36.736 26.007-60.556 26.007s-45.31-9.973-60.522-25.972c-15.567-16.361-25.124-38.501-25.124-62.872s9.556-46.51 25.126-62.874l347.193-360.224z" />
<glyph unicode="&#xe92e;" glyph-name="invoices-template-settings" data-tags="ic-invoices-template-settings" horiz-adv-x="819" d="M801.382 814.756c0 75.981-53.412 131.072-122.88 131.072h-386.458c-26.706 0-49.848-9.503-69.427-30.392-49.889-51.282-115.753-121.569-183.419-191.898-16.056-17.080-24.986-36.086-24.986-60.785v-579.461c0-79.79 51.692-134.922 126.484-134.922h536.044c35.635 0 67.666 13.312 90.808 38.011s35.635 58.9 35.635 96.911v484.475c-1.802 81.674-1.802 165.274-1.802 246.989zM249.324 851.538v-113.295c0-31.826-12.452-44.237-44.524-44.237h-117.555c46.285 44.237 97.976 93.798 162.079 157.532zM712.212 42.168c-13.107-14.336-32.727-23.265-55.624-23.265v0h-492.421c-45.834 0-76.923 32.195-76.923 84.050v545.423h134.185c52.347 0 81.797 32.195 81.797 89.416v134.144h353.362c44.196 0 73.646-33.997 73.646-82.248v-688.538c3.277-23.265-3.277-42.926-18.022-58.982zM163.717 343.060h91.095c12.713 0 23.020-10.306 23.020-23.020v0.041c0-12.713-10.306-23.020-23.020-23.020h-91.095c-12.713 0-23.020 10.306-23.020 23.020v-0.041c0 12.713 10.306 23.020 23.020 23.020zM382.894 343.060h252.887c22.622 0 40.96-18.338 40.96-40.96s-18.338-40.96-40.96-40.96h-252.887c-22.622 0-40.96 18.338-40.96 40.96s18.338 40.96 40.96 40.96zM171.418 180.244h284.058c16.966 0 30.72-13.754 30.72-30.72s-13.754-30.72-30.72-30.72h-284.058c-16.966 0-30.72 13.754-30.72 30.72s13.754 30.72 30.72 30.72zM573.317 180.244h80.404c12.713 0 23.020-10.306 23.020-23.020v0.041c0-12.713-10.306-23.020-23.020-23.020h-80.404c-12.713 0-23.020 10.306-23.020 23.020v-0.041c0 12.713 10.306 23.020 23.020 23.020zM571.679 474.051h3.523c28.508 5.325 48.087 23.020 55.214 47.759 12.493 33.628 0 69.059-30.269 86.753-7.127 5.325-16.015 8.847-23.142 12.37l-5.325 1.761c-1.802 0-3.564 1.802-5.325 1.802l-5.366 1.761c-3.475 1.866-7.602 3.665-11.88 5.141-2.374 1.945-4.176 1.945-5.937 1.945-7.127 3.523-12.452 5.325-17.818 8.847-12.452 7.086-16.015 22.979-10.65 37.151 3.523 10.65 12.452 15.933 24.904 17.695h19.579c10.691-1.761 19.579-8.847 23.142-19.456 0-1.761 1.802-3.523 1.802-3.523 1.761-8.888 12.452-15.974 21.381-15.974h5.325c5.325 1.802 10.65 5.325 14.254 8.888 3.564 5.325 5.325 10.609 3.564 15.933-1.802 3.523-1.802 7.045-1.802 7.045-8.888 23.020-24.904 38.953-48.087 46.039h-1.761v15.933c0 12.37-10.65 21.217-23.142 21.217s-23.142-8.847-23.142-21.217v-15.974h-3.564c-24.986-5.284-44.524-21.217-51.651-44.237-12.493-33.587 0-69.018 28.467-86.712 8.929-5.325 19.62-10.609 28.508-14.131l3.564-1.802c1.761 0 3.564-1.761 5.325-1.761l7.127-3.523 10.691-5.325c7.127-3.523 14.254-5.325 19.579-8.847 12.493-7.086 17.818-23.020 12.493-37.151-3.564-12.411-12.493-17.695-28.508-19.497h-19.579c-16.015 1.802-28.508 12.411-32.072 26.583-1.761 10.609-10.65 15.892-21.34 15.892h-5.325c-5.577-1.982-10.35-5-14.303-8.855-1.842-2.686-2.946-6.017-2.946-9.606 0-2.26 0.438-4.418 1.234-6.394 7.086-28.229 28.426-49.447 58.737-56.533h3.564v-17.695c0-12.411 10.65-21.258 23.142-21.258 12.452 0 23.142 8.847 23.142 21.258l-5.325 17.695z" />
<glyph unicode="&#xe92f;" glyph-name="contract-template-settings" data-tags="ic-contract-template-settings" horiz-adv-x="819" d="M787.128 828.928c0 75.981-53.412 131.072-122.88 131.072h-386.417c-26.747 0-49.889-9.503-69.468-30.392-49.848-51.323-115.753-121.61-183.419-191.898-16.056-17.080-24.945-36.086-24.945-60.785v-579.543c0-79.79 51.61-134.881 126.444-134.881h536.044c35.635 0 67.666 13.312 90.808 38.011 23.183 24.699 35.635 58.9 35.635 96.87v484.557c-1.802 81.715-1.802 165.315-1.802 246.989zM235.11 865.669v-113.295c0-31.867-12.452-44.237-44.524-44.237h-117.555c46.326 44.237 97.976 93.798 162.079 157.532zM697.958 56.3c-13.107-14.336-32.686-23.265-55.624-23.265v0h-492.421c-45.793 0-76.882 32.195-76.882 84.050v545.464h134.144c52.347 0 81.797 32.195 81.797 89.416v134.144h353.362c44.196 0 73.646-33.997 73.646-82.289v-688.497c3.277-23.265-3.277-42.926-18.022-59.023zM145.9 673.28h91.095c12.713 0 23.020-10.306 23.020-23.020v0.041c0-12.713-10.306-23.020-23.020-23.020h-91.095c-12.713 0-23.020 10.306-23.020 23.020v-0.041c0 12.713 10.306 23.020 23.020 23.020zM358.4 673.28h273.367c16.966 0 30.72-13.754 30.72-30.72s-13.754-30.72-30.72-30.72h-273.367c-16.966 0-30.72 13.754-30.72 30.72s13.754 30.72 30.72 30.72zM153.6 509.44h284.058c16.966 0 30.72-13.754 30.72-30.72s-13.754-30.72-30.72-30.72h-284.058c-16.966 0-30.72 13.754-30.72 30.72s13.754 30.72 30.72 30.72zM555.5 509.44h80.404c12.713 0 23.020-10.306 23.020-23.020v0.041c0-12.713-10.306-23.020-23.020-23.020h-80.404c-12.713 0-23.020 10.306-23.020 23.020v-0.041c0 12.713 10.306 23.020 23.020 23.020zM145.9 386.56h91.095c12.713 0 23.020-10.306 23.020-23.020v0.041c0-12.713-10.306-23.020-23.020-23.020h-91.095c-12.713 0-23.020 10.306-23.020 23.020v-0.041c0 12.713 10.306 23.020 23.020 23.020zM542.474 206.746c4.792 8.274 9.011 16.302 12.411 24.003 7.66 17.326 11.182 32.236 8.847 45.015-3.318 18.473-18.186 28.877-40.428 28.877-30.925 0-48.906-15.688-73.892-53.002l-7.823-11.756c-25.068-37.478-41.984-51.364-71.68-51.364-31.99 0-46.694 7.455-51.282 18.391-1.077 2.723-1.702 5.878-1.702 9.179 0 2.076 0.247 4.095 0.714 6.028 0.21 0.849 0.456 1.668 0.374 1.546l-28.426 10.158c-1.878-5.297-2.963-11.407-2.963-17.769 0-7.507 1.511-14.662 4.244-21.176 9.819-23.273 35.951-36.544 79.041-36.544 42.598 0 66.642 19.661 96.788 64.717l7.782 11.796c19.743 29.491 31.375 39.608 48.824 39.608 8.602 0 10.199-1.147 10.732-4.096 0.983-5.325-1.352-15.114-6.758-27.402-2.908-6.554-6.595-13.64-10.895-20.972-6.511-11.177-12.749-20.564-19.466-29.572l-16.825-22.201 138.322-5.448 1.188 30.188-82.33 3.236c1.72 2.744 3.482 5.612 5.202 8.602zM163.84 120.32h491.52v20.48h-491.52zM257.966 232.141l-31.539 31.539-21.627-21.668 31.539-31.539-31.539-31.498 21.668-21.627 31.539 31.539 31.498-31.539 21.627 21.627-31.539 31.539 31.539 31.539-21.627 21.627-31.539-31.539z" />
<glyph unicode="&#xe930;" glyph-name="proposals-templates-settings" data-tags="ic-proposals-templates-settings" horiz-adv-x="896" d="M0.555 686.336v-119.211c0-30.336 24.192-54.955 54.101-54.955h360.448v229.12h-360.491c-29.867 0-54.101-24.576-54.101-54.955zM841.387 741.333h-360.533v-229.163h360.448c29.867 0 54.101 24.619 54.101 54.955v119.211c0 30.379-24.192 54.997-54.101 54.997zM50.816-3.413c0-19.669 15.701-35.627 35.072-35.627h329.216v510.635h-364.331v-475.008zM480.896-39.040h329.216c19.383 0.168 35.031 15.92 35.031 35.327 0 0.105 0 0.211-0.001 0.316v474.992h-364.245v-510.635zM217.344 779.989c11.349-6.4 34.389-14.933 103.509-14.933 38.059 0 71.765 2.645 73.173 2.731 7.865 0.671 14.531 5.239 18.116 11.744 1.874 3.378 2.942 7.268 2.942 11.407 0 3.882-0.939 7.545-2.603 10.773-10.349 20.476-64.408 124.241-103.064 146.129-13.223 7.632-29.080 12.142-45.989 12.16-34.309 0-65.968-18.901-82.651-49.323-25.387-46.251-8.96-104.875 36.565-130.688zM220.715 888.064c8.419 15.243 24.37 25.41 42.701 25.472 8.286 0 16.478-2.133 23.731-6.272 14.165-8.021 42.923-50.901 67.755-95.104-10.24-0.384-21.973-0.64-34.091-0.64-60.501 0-77.44 6.955-81.237 9.088-15.069 8.824-25.029 24.934-25.029 43.371 0 8.834 2.287 17.134 6.301 24.34zM501.973 767.787c1.408-0.085 35.115-2.731 73.173-2.731 69.12 0 92.16 8.533 103.509 14.933 45.568 25.813 61.952 84.437 36.565 130.688-16.286 29.508-47.152 49.193-82.627 49.323-16.061 0-31.933-4.224-46.013-12.16-38.656-21.888-92.715-125.653-103.125-146.261-1.602-3.096-2.541-6.759-2.541-10.641 0-4.14 1.068-8.030 2.944-11.41 3.651-6.706 10.477-11.101 18.115-11.741zM608.853 907.264c6.862 3.983 15.1 6.333 23.886 6.333 18.325 0 34.263-10.224 42.419-25.278 13.225-24.148 4.777-54.441-18.775-67.753-3.755-2.133-20.736-9.045-81.237-9.045-12.075 0-23.765 0.256-34.048 0.64 24.789 44.203 53.547 87.040 67.755 95.104z" />
<glyph unicode="&#xe931;" glyph-name="questionnaire-template-settings" data-tags="ic-questionnaire-template-settings" d="M512 960c-282.795 0-512-229.205-512-512s229.205-512 512-512 512 229.205 512 512-229.205 512-512 512zM512 38.4c-225.749 0-409.6 183.851-409.6 409.6s183.851 409.6 409.6 409.6c225.749 0 409.6-183.851 409.6-409.6s-183.851-409.6-409.6-409.6zM507.349 755.2c-0.155 0.001-0.339 0.001-0.523 0.001-71.912 0-133.477-44.299-158.896-107.097-2.128-5.369-3.124-10.264-3.124-15.392 0-16.178 9.916-30.040 24.002-35.839 4.488-1.82 9.396-2.822 14.538-2.822 16.183 0 30.049 9.923 35.845 24.017 14.276 35.514 48.189 59.949 87.809 59.949 0.123 0 0.245 0 0.368-0.001 52.205 0 94.701-42.539 94.701-94.72 0-51.456-37.675-74.24-44.331-79.275-49.365-37.291-105.216-79.616-105.216-199.552 0-21.373 17.326-38.699 38.699-38.699s38.699 17.326 38.699 38.699c0 81.451 29.653 103.808 74.624 137.899 7.040 5.419 74.965 51.797 74.965 140.885-0.339 94.902-77.241 171.729-172.139 171.947zM491.861 242.005c-28.032 0-50.603-22.613-50.603-50.603 0-28.032 22.571-50.603 50.603-50.603 27.062 1.146 48.567 23.363 48.567 50.603s-21.505 49.457-48.464 50.599z" />
<glyph unicode="&#xe932;" glyph-name="email-template-settings" data-tags="ic-email-template-settings" horiz-adv-x="1280" d="M640 349.696l640 469.376v12.736c0 78.528-63.616 128.192-142.208 128.192h-995.584c-78.464 0-142.208-49.664-142.208-128.192v-12.8l640-469.312zM680.768 204.672c-11.348-8.081-25.493-12.919-40.768-12.919s-29.42 4.838-40.986 13.066l-599.014 440.685v-538.88c0-78.528 63.744-142.208 142.208-142.208h995.584c78.539 0 142.208 63.669 142.208 142.208 0 0.023 0 0.045 0 0.068v538.812l-599.232-440.832z" />
<glyph unicode="&#xe933;" glyph-name="payment-settings" data-tags="ic-payment-settings" horiz-adv-x="1331" d="M1177.6 960h-1024c-70.338-0.058-127.336-57.091-127.336-127.437 0-0.198 0-0.396 0.001-0.594l-0.666-767.969c0-70.692 57.308-128 128-128h1024c70.692 0 128 57.308 128 128v768c0 70.692-57.308 128-128 128zM1177.6 64h-1024v384h1024v-384zM1177.6 704h-1024v128h1024v-128z" />
<glyph unicode="&#xe934;" glyph-name="productspricing-settings" data-tags="ic-productspricing-settings" d="M112.033 960h261.461c62.236 0 136.951-37.357 186.747-74.714l435.769-435.731c37.319-37.357 37.319-112.033 0-161.83l-323.736-323.698c-49.797-37.357-112.033-37.357-161.83 0l-435.769 435.731c-37.281 49.797-74.676 136.913-74.676 186.747v261.461c-0.001 0.135-0.001 0.296-0.001 0.456 0 61.623 49.955 111.578 111.578 111.578 0.16 0 0.321 0 0.481-0.001zM261.461 586.505c0.135-0.001 0.296-0.001 0.456-0.001 61.623 0 111.578 49.955 111.578 111.578 0 0.16 0 0.321-0.001 0.481 0.001 0.122 0.001 0.295 0.001 0.469 0 61.623-49.955 111.578-111.578 111.578-0.16 0-0.321 0-0.481-0.001-0.122 0.001-0.296 0.001-0.47 0.001-61.623 0-111.578-49.955-111.578-111.578 0-0.174 0-0.347 0.001-0.521-0.001-0.109-0.001-0.269-0.001-0.429 0-61.623 49.955-111.578 111.578-111.578 0.174 0 0.347 0 0.521 0.001z" />
<glyph unicode="&#xe935;" glyph-name="tree" data-tags="shape (1)" d="M768 345.6h204.8c30.72 0 51.2 20.48 51.2 51.2v204.8c0 30.72-20.48 51.2-51.2 51.2h-204.8c-30.72 0-51.2-20.48-51.2-51.2v-51.2h-153.6v256c0 30.72-20.48 51.2-51.2 51.2h-215.040c-20.48 61.44-76.8 102.4-143.36 102.4-87.040 0-153.6-66.56-153.6-153.6s66.56-153.6 153.6-153.6c66.56 0 122.88 40.96 143.36 102.4h163.84v-665.6c0-30.72 20.48-51.2 51.2-51.2h204.8v-51.2c0-30.72 20.48-51.2 51.2-51.2h204.8c30.72 0 51.2 20.48 51.2 51.2v204.8c0 30.72-20.48 51.2-51.2 51.2h-204.8c-30.72 0-51.2-20.48-51.2-51.2v-51.2h-153.6v307.2h153.6v-51.2c0-30.72 20.48-51.2 51.2-51.2zM819.2 550.4h102.4v-102.4h-102.4v102.4zM819.2 140.8h102.4v-102.4h-102.4v102.4z" />
<glyph unicode="&#xe936;" glyph-name="job-types-settings" data-tags="ic-job-types-settings" horiz-adv-x="1067" d="M932.838-40.021c0.165-0.001 0.331-0.001 0.497-0.001 73.413 0 132.969 59.332 133.332 132.694v600.661c0 0 0 0.001 0 0.001 0 73.428-59.355 132.993-132.736 133.332h-106.325l-102.4 102.485c-20.565 19.285-47.573 30.293-75.733 30.848l-232.397-0.002c-29.261-0.608-55.812-12.236-75.613-30.846l-102.4-102.485h-106.368c-73.387-0.341-132.693-59.947-132.693-133.333v-600.021c0 0 0 0 0-0.001 0-73.638 59.695-133.333 133.333-133.333 0.165 0 0.33 0 0.469 0.001h799.061zM533.333 693.333c147.276 0 266.667-119.391 266.667-266.667s-119.391-266.667-266.667-266.667c-147.276 0-266.667 119.391-266.667 266.667s119.391 266.667 266.667 266.667zM533.333 293.333c73.638 0 133.333 59.695 133.333 133.333s-59.695 133.333-133.333 133.333c-73.638 0-133.333-59.695-133.333-133.333s59.695-133.333 133.333-133.333z" />
<glyph unicode="&#xe937;" glyph-name="team-settings" data-tags="ic-team-settings" horiz-adv-x="1658" d="M1138.395 286.647c52.504 31.202 115.756 49.644 183.316 49.644 0.644 0 1.289-0.002 1.932-0.005 184.562 0 334.262-132.973 334.262-296.96 0 0 0-73.338-95.573-73.338h-477.623c-3.316 0-6.485 0.049-9.606 0.244-2.119-0.155-4.592-0.244-7.084-0.244-0.081 0-0.162 0-0.242 0h-477.659c-2.487 0-4.974 0.049-7.314 0.244-2.756-0.156-5.98-0.244-9.226-0.244-0.134 0-0.267 0-0.401 0h-477.602c-95.573 0-95.573 73.289-95.573 73.289 0 164.035 149.699 297.009 334.36 297.009 0.544 0.003 1.189 0.005 1.833 0.005 67.559 0 130.811-18.442 184.996-50.566 48.252 187.388 168.011 318.801 307.763 318.801s259.511-131.365 309.443-317.83zM334.36 388.072c-92.306 0-167.156 66.511-167.156 148.529 0 81.969 74.85 148.529 167.156 148.529 92.404 0 167.205-66.56 167.205-148.529 0-82.018-74.801-148.48-167.205-148.48zM828.952 657.286c-92.355 0-167.205 67.779-167.205 151.406 0 83.48 74.85 151.308 167.205 151.308 92.404 0 167.205-67.779 167.205-151.357 0-83.627-74.801-151.357-167.205-151.357zM1323.544 388.12c-92.355 0-167.205 66.511-167.205 148.529 0 81.969 74.85 148.529 167.205 148.529s167.156-66.56 167.156-148.529c0-82.018-74.801-148.48-167.156-148.48z" />
<glyph unicode="&#xe938;" glyph-name="notifications-settings" data-tags="ic-notifications-settings" d="M954.823 85.466h-312.206c0-68.933-55.881-124.814-124.814-124.814s-124.814 55.881-124.814 124.814h-312.282c-27.45 0.016-50.765 17.704-59.185 42.302-2.135 6.304-3.292 13.060-3.292 20.085 0 20.397 9.753 38.517 24.85 49.949 61.3 46.036 100.433 118.401 100.433 199.906 0 0.027 0 0.054 0 0.082v187.426c-0.038 207 167.746 374.784 374.632 374.784s374.594-167.784 374.594-374.784v-187.43c-0.001-0.186-0.001-0.406-0.001-0.626 0-81.275 39.014-153.438 99.335-198.784 34.967-0.683 62.709-28.563 62.709-62.922 0-34.498-27.966-62.464-62.464-62.464-14.123 0-27.151 4.687-37.614 12.59z" />
<glyph unicode="&#xe939;" glyph-name="cal-email-settings" data-tags="ic-cal-email-settings" d="M881.778 846.222h-28.444v57.458c0 31.099-25.221 56.32-56.32 56.32h-1.138c-31.099 0-56.32-25.183-56.32-56.32v-57.458h-455.111v57.458c0 31.099-25.221 56.32-56.32 56.32h-1.138c-31.099 0-56.32-25.183-56.32-56.32v-57.458h-28.444c-78.504-0.108-142.114-63.718-142.222-142.212v-625.788c0.108-78.504 63.718-142.114 142.212-142.222h739.566c78.504 0.108 142.114 63.718 142.222 142.212v625.788c-0.108 78.504-63.718 142.114-142.212 142.222zM910.222 78.222c0-15.709-12.735-28.444-28.444-28.444h-739.556c-15.709 0-28.444 12.735-28.444 28.444v426.667h796.444v-426.667zM568.889 429.037v-303.407h-60.871v231.727l-63.033-42.325-27.8 47.332 96.142 66.674z" />
<glyph unicode="&#xe93a;" glyph-name="planbilling-settings" data-tags="ic-planbilling-settings" horiz-adv-x="1583" d="M1163.636 5.818v884.364h372.364c25.706 0 46.545-20.839 46.545-46.545v-791.273c0-25.706-20.839-46.545-46.545-46.545h-372.364zM1256.727 634.182c1.834-62.86 53.23-113.119 116.364-113.119s114.53 50.259 116.36 112.95c-1.83 63.028-53.226 113.287-116.36 113.287s-114.53-50.259-116.36-112.95zM1233.455 331.869c0-12.986 10.612-23.505 23.319-23.505h232.681c0.014 0 0.031 0 0.048 0 12.853 0 23.273 10.42 23.273 23.273 0 0.082 0 0.164-0.001 0.245v46.068c0 0 0 0 0 0.001 0 12.916-10.418 23.399-23.309 23.505h-232.737c-0.014 0-0.031 0-0.048 0-12.853 0-23.273-10.42-23.273-23.273 0-0.082 0-0.164 0.001-0.245v-46.068zM1280 168.96c0-12.986 10.566-23.505 23.226-23.505h139.683c0.001 0 0.001 0 0.002 0 12.827 0 23.226 10.399 23.226 23.226 0 0.098-0.001 0.196-0.002 0.294v46.065c0 0.014 0 0.031 0 0.048 0 12.874-10.371 23.326-23.214 23.458h-139.649c-0.001 0-0.001 0-0.002 0-12.827 0-23.226-10.399-23.226-23.226 0-0.098 0.001-0.196 0.002-0.294v-46.065zM558.545 960h465.455c25.706 0 46.545-20.839 46.545-46.545v-930.909c0-25.706-20.839-46.545-46.545-46.545h-465.455c-25.706 0-46.545 20.839-46.545 46.545v930.909c0 25.706 20.839 46.545 46.545 46.545zM651.636 680.727c0-77.033 62.557-139.636 139.636-139.636 77.033 0 139.636 62.557 139.636 139.636 0 77.033-62.557 139.636-139.636 139.636-77.033 0-139.636-62.557-139.636-139.636zM628.364 331.869c0-12.986 10.473-23.505 23.412-23.505h278.993c0.028 0 0.061 0 0.094 0 12.879 0 23.319 10.44 23.319 23.319 0 0.066 0 0.131-0.001 0.196v46.070c0 0.014 0 0.030 0 0.047 0 12.94-10.476 23.432-23.41 23.459h-278.996c-0.028 0-0.061 0-0.094 0-12.879 0-23.319-10.44-23.319-23.319 0-0.066 0-0.131 0.001-0.196v-46.070zM698.182 168.96c0-12.986 10.566-23.505 23.226-23.505h139.683c0.001 0 0.001 0 0.002 0 12.827 0 23.226 10.399 23.226 23.226 0 0.098-0.001 0.196-0.002 0.294v46.065c0 0.014 0 0.031 0 0.048 0 12.874-10.371 23.326-23.214 23.458h-139.649c-0.001 0-0.001 0-0.002 0-12.827 0-23.226-10.399-23.226-23.226 0-0.098 0.001-0.196 0.002-0.294v-46.065zM46.545 890.182h372.364v-884.364h-372.364c-25.706 0-46.545 20.839-46.545 46.545v791.273c0 25.706 20.839 46.545 46.545 46.545zM93.091 634.182c1.834-62.86 53.23-113.119 116.364-113.119s114.53 50.259 116.36 112.95c-1.83 63.028-53.226 113.287-116.36 113.287s-114.53-50.259-116.36-112.95zM69.818 331.869c0-12.986 10.612-23.505 23.319-23.505h232.681c0.014 0 0.031 0 0.048 0 12.853 0 23.273 10.42 23.273 23.273 0 0.082 0 0.164-0.001 0.245v46.068c0 0 0 0 0 0 0 12.933-10.444 23.426-23.358 23.505h-232.688c-0.014 0-0.031 0-0.048 0-12.853 0-23.273-10.42-23.273-23.273 0-0.082 0-0.164 0.001-0.245v-46.068zM116.364 168.96c0-12.986 10.566-23.505 23.226-23.505h139.683c0.001 0 0.001 0 0.002 0 12.827 0 23.226 10.399 23.226 23.226 0 0.098-0.001 0.196-0.002 0.294v46.065c0 0.014 0 0.031 0 0.048 0 12.874-10.371 23.326-23.214 23.458h-139.649c-0.001 0-0.001 0-0.002 0-12.827 0-23.226-10.399-23.226-23.226 0-0.098 0.001-0.196 0.002-0.294v-46.065z" />
<glyph unicode="&#xe93b;" glyph-name="user-list" data-tags="combined-shape" horiz-adv-x="2048" d="M910.222 40.391c0 233.586-203.776 422.912-455.111 422.912s-455.111-189.326-455.111-422.912c0 0 0-104.391 130.048-104.391h650.126c130.048 0 130.048 104.391 130.048 104.391zM455.111 537.031c-125.724 0-227.556 94.72-227.556 211.513 0 116.736 101.831 211.456 227.556 211.456s227.556-94.72 227.556-211.456c0-116.793-101.831-211.456-227.556-211.456zM1080.889 874.667c0 47.104 38.4 85.333 85.106 85.333h779.662c46.99 0 85.106-37.888 85.106-85.333 0-47.104-38.4-85.333-85.106-85.333h-779.662c-0.017 0-0.037 0-0.057 0-46.971 0-85.049 38.078-85.049 85.049 0 0.1 0 0.2 0.001 0.3zM1080.889 590.222c0 47.104 38.4 85.333 85.106 85.333h779.662c46.99 0 85.106-37.888 85.106-85.333 0-47.104-38.4-85.333-85.106-85.333h-779.662c-0.017 0-0.037 0-0.057 0-46.971 0-85.049 38.078-85.049 85.049 0 0.1 0 0.2 0.001 0.3zM1080.889 305.778c0 47.104 38.4 85.333 85.106 85.333h779.662c46.99 0 85.106-37.888 85.106-85.333 0-47.104-38.4-85.333-85.106-85.333h-779.662c-0.017 0-0.037 0-0.057 0-46.971 0-85.049 38.078-85.049 85.049 0 0.1 0 0.2 0.001 0.3zM1080.889 21.333c0 47.104 37.888 85.333 85.504 85.333h515.015c47.218 0 85.504-37.888 85.504-85.333 0-47.104-37.831-85.333-85.504-85.333h-515.015c-47.218 0-85.504 37.888-85.504 85.333z" />
<glyph unicode="&#xe93c;" glyph-name="client-access-settings" data-tags="ic-client-access-settings" d="M891.051 104.277c82.427 89.666 132.953 209.791 132.953 341.717 0 0.705-0.001 1.41-0.004 2.115 0 131.441-49.493 250.225-130.116 340.747-1.628 3.022-4.043 5.438-6.975 7.021-93.445 100.465-226.429 164.124-373.543 164.124h-2.799c-147.115 0-280.064-63.659-373.419-164.079-2.833-1.399-4.233-4.233-5.632-7.066-80.589-90.522-131.516-210.739-131.516-342.221-0.001-0.384-0.002-0.838-0.002-1.292 0-131.477 49.957-251.287 131.924-341.481 1.027-0.983 2.426-3.816 5.259-5.25 94.274-99.379 227.289-161.212 374.746-161.212 0.025 0 0.051 0 0.076 0 137.213 0 265.895 53.76 362.083 149.948l16.964 16.964zM56.559 421.171h256c2.833-65.058 14.165-130.116 33.963-192.375-70.009-15.644-131.871-39.523-188.866-71.116-57.236 73.949-94.032 164.471-101.097 263.492zM161.246 739.396c53.188-28.33 114.904-52.096 179.673-68.118-12.972-58.466-25.159-124.692-28.3-193.278l-256.061-1.669c7.1 100.42 43.861 190.942 104.687 263.066zM967.441 477.73h-256c-3.201 70.256-15.388 136.482-35.457 199.182 65.153 8.724 127.379 32.788 186.771 63.883 60.826-73.523 97.621-164.045 104.687-263.066zM401.681 238.694c-19.797 59.392-29.696 120.252-32.529 182.477h284.297c-3.445-66.316-15.091-128.628-33.972-187.706-31.506 10.63-69.481 13.716-108.176 13.716s-76.67-3.086-113.691-9.026zM601.088 184.969c-14.174-34.871-29.823-64.647-47.959-92.663l-41.129-71.45-43.861 73.557c-18.364 29.696-32.529 59.392-46.66 90.522 26.958 3.376 58.157 5.303 89.805 5.303s62.847-1.927 93.484-5.669zM369.152 477.73c2.833 62.225 14.131 123.051 32.529 182.443 36.762-5.632 73.557-8.465 110.319-8.465s73.557 2.833 108.885 8.465c19.797-59.392 29.696-120.218 32.563-182.443h-284.331zM422.912 713.933c14.174 34.871 29.823 64.647 47.959 92.663l42.528 71.416 43.861-73.557c18.398-29.696 32.529-59.392 46.66-90.522-27.167-3.376-58.611-5.303-90.505-5.303s-63.338 1.927-94.222 5.67zM659.115 723.831c-17.665 43.039-36.164 79.31-57.2 113.867l-38.987 64.377c100.42-11.332 189.508-55.194 260.233-120.252-47.014-23.64-101.738-43.568-158.971-56.983zM420.079 834.15c-19.030-31.018-37.53-67.3-53.233-105.038-58.553 7.417-113.713 25.815-166.039 52.678 69.008 64.876 158.671 108.5 258.12 120.019l-38.882-67.692zM364.919 175.036c17.656-43.028 36.144-79.288 57.167-113.836l38.987-64.374c-101.112 11.735-190.32 55.38-259.040 120.446 46.912 23.725 101.182 43.665 158.041 56.852zM603.921 64.751c19.018 31.007 37.506 67.279 53.2 105.005 58.552-7.418 113.712-25.816 166.038-52.713-72.124-67.857-162.645-108.885-260.233-120.183l40.994 67.891zM677.478 228.796c19.797 62.259 31.13 127.317 33.963 192.375h256c-6.259-100.302-44.21-190.692-103.85-262.404-53.055 29.337-115.285 53.128-180.639 68.912z" />
<glyph unicode="&#xe93d;" glyph-name="template" data-tags="ic-template" horiz-adv-x="1229" d="M712.704 550.4h-319.488c-12.288 0-24.576-10.24-24.576-20.48v-573.44c0-10.24 12.288-20.48 24.576-20.48h319.488c12.288 0 24.576 10.24 24.576 20.48v573.44c0 10.24-12.288 20.48-24.576 20.48zM393.216 652.8h811.008c12.288 0 24.576 10.24 24.576 20.48v235.52c0 30.72-24.576 51.2-61.44 51.2h-774.144c-12.288 0-24.576-10.24-24.576-20.48v-266.24c0-10.24 12.288-20.48 24.576-20.48zM860.16 529.92v-573.44c0-10.24 12.288-20.48 24.576-20.48h282.624c36.864 0 61.44 20.48 61.44 51.2v542.72c0 10.24-12.288 20.48-24.576 20.48h-319.488c-12.288 0-24.576-10.24-24.576-20.48zM221.184 960h-159.744c-36.864 0-61.44-20.48-61.44-51.2v-921.6c0-30.72 24.576-51.2 61.44-51.2h159.744c12.288 0 24.576 10.24 24.576 20.48v983.040c0 10.24-12.288 20.48-24.576 20.48z" />
<glyph unicode="&#xe93e;" glyph-name="disable-contact" data-tags="disable_contact" horiz-adv-x="1170" d="M893.074 64.228c0-15.286-4.262-36.767-17.202-58.505-21.606-36.298-60.511-58.085-118.113-58.085h-585.143c-57.602 0-96.507 21.787-118.113 58.085-12.939 21.738-17.202 43.219-17.202 58.505 0 230.148 191.684 416.508 427.886 416.508s427.886-186.359 427.886-416.508zM856.503 64.228c0 209.716-175.083 379.937-391.314 379.937s-391.314-170.22-391.314-379.937c0-9.29 3.052-24.673 12.056-39.799 14.966-25.142 41.889-40.219 86.687-40.219h585.143c44.798 0 71.722 15.077 86.687 40.219 9.003 15.126 12.056 30.509 12.056 39.799zM465.189 550.197c103.16 0 186.514 81.055 186.514 180.825 0 99.734-83.375 180.825-186.514 180.825-103.102 0-186.514-81.112-186.514-180.825 0-99.75 83.392-180.825 186.514-180.825zM465.189 513.625c-123.094 0-223.086 97.215-223.086 217.397 0 120.144 100.012 217.397 223.086 217.397 123.113 0 223.086-97.234 223.086-217.397 0-120.201-99.953-217.397-223.086-217.397zM1007.394 576.538l116.353 116.353c10.459 10.459 10.728 28.095 0.017 38.807-10.398 10.398-28.086 10.704-38.807-0.017l-116.353-116.353-116.353 116.353c-10.459 10.459-28.095 10.728-38.807 0.017-10.398-10.398-10.704-28.086 0.017-38.807l116.353-116.353-116.353-116.353c-10.459-10.459-10.728-28.095-0.017-38.807 10.398-10.398 28.086-10.704 38.807 0.017l116.353 116.353 116.353-116.353c10.459-10.459 28.095-10.728 38.807-0.017 10.398 10.398 10.704 28.086-0.017 38.807l-116.353 116.353z" />
</font>
</defs>
</svg>
